<mxfile host="app.diagrams.net" modified="2023-11-27T16:43:46.491Z" agent="Mozilla/5.0 (Windows NT 10.0; Win64; x64) AppleWebKit/537.36 (KHTML, like Gecko) Chrome/119.0.0.0 Safari/537.36" etag="OwfdzZr-6U55K8lJlA-N" version="22.1.3" type="github" pages="4">
  <diagram name="Cloud Positions" id="OvlJBEXXVfp6pnEp47S3">
    <mxGraphModel dx="1914" dy="966" grid="1" gridSize="10" guides="1" tooltips="1" connect="1" arrows="1" fold="1" page="1" pageScale="1" pageWidth="850" pageHeight="1100" math="0" shadow="0">
      <root>
        <mxCell id="0" />
        <mxCell id="1" parent="0" />
        <mxCell id="nF6jmrL_8FKUZvZka1Eo-35" style="edgeStyle=orthogonalEdgeStyle;rounded=0;orthogonalLoop=1;jettySize=auto;html=1;exitX=1;exitY=0.5;exitDx=0;exitDy=0;entryX=0;entryY=0.5;entryDx=0;entryDy=0;" edge="1" parent="1" source="nF6jmrL_8FKUZvZka1Eo-1" target="nF6jmrL_8FKUZvZka1Eo-8">
          <mxGeometry relative="1" as="geometry" />
        </mxCell>
        <mxCell id="nF6jmrL_8FKUZvZka1Eo-1" value="Servers and Compute" style="rounded=0;whiteSpace=wrap;html=1;fillColor=#FF66FF;" vertex="1" parent="1">
          <mxGeometry x="80" y="200" width="160" height="40" as="geometry" />
        </mxCell>
        <mxCell id="nF6jmrL_8FKUZvZka1Eo-36" style="edgeStyle=orthogonalEdgeStyle;rounded=0;orthogonalLoop=1;jettySize=auto;html=1;exitX=1;exitY=0.5;exitDx=0;exitDy=0;entryX=0;entryY=0.5;entryDx=0;entryDy=0;" edge="1" parent="1" source="nF6jmrL_8FKUZvZka1Eo-2" target="nF6jmrL_8FKUZvZka1Eo-9">
          <mxGeometry relative="1" as="geometry" />
        </mxCell>
        <mxCell id="nF6jmrL_8FKUZvZka1Eo-2" value="Applications" style="rounded=0;whiteSpace=wrap;html=1;fillColor=#FFCCFF;" vertex="1" parent="1">
          <mxGeometry x="80" y="240" width="160" height="40" as="geometry" />
        </mxCell>
        <mxCell id="nF6jmrL_8FKUZvZka1Eo-40" style="edgeStyle=orthogonalEdgeStyle;rounded=0;orthogonalLoop=1;jettySize=auto;html=1;exitX=1;exitY=0.5;exitDx=0;exitDy=0;" edge="1" parent="1" source="nF6jmrL_8FKUZvZka1Eo-3" target="nF6jmrL_8FKUZvZka1Eo-10">
          <mxGeometry relative="1" as="geometry" />
        </mxCell>
        <mxCell id="nF6jmrL_8FKUZvZka1Eo-3" value="Integrations" style="rounded=0;whiteSpace=wrap;html=1;fillColor=#FF66FF;" vertex="1" parent="1">
          <mxGeometry x="80" y="280" width="160" height="40" as="geometry" />
        </mxCell>
        <mxCell id="nF6jmrL_8FKUZvZka1Eo-39" style="edgeStyle=orthogonalEdgeStyle;rounded=0;orthogonalLoop=1;jettySize=auto;html=1;exitX=1;exitY=0.5;exitDx=0;exitDy=0;entryX=0;entryY=0.5;entryDx=0;entryDy=0;" edge="1" parent="1" source="nF6jmrL_8FKUZvZka1Eo-4" target="nF6jmrL_8FKUZvZka1Eo-11">
          <mxGeometry relative="1" as="geometry" />
        </mxCell>
        <mxCell id="nF6jmrL_8FKUZvZka1Eo-4" value="Edge and B2B Network" style="rounded=0;whiteSpace=wrap;html=1;fillColor=#FFCCFF;" vertex="1" parent="1">
          <mxGeometry x="80" y="320" width="160" height="40" as="geometry" />
        </mxCell>
        <mxCell id="nF6jmrL_8FKUZvZka1Eo-5" value="Desktop Services" style="rounded=0;whiteSpace=wrap;html=1;fillColor=#FFCCFF;" vertex="1" parent="1">
          <mxGeometry x="80" y="560" width="160" height="40" as="geometry" />
        </mxCell>
        <mxCell id="nF6jmrL_8FKUZvZka1Eo-6" value="Storage" style="rounded=0;whiteSpace=wrap;html=1;fillColor=#FF66FF;" vertex="1" parent="1">
          <mxGeometry x="80" y="360" width="160" height="40" as="geometry" />
        </mxCell>
        <mxCell id="nF6jmrL_8FKUZvZka1Eo-7" value="Warehouse Management and Execution" style="rounded=0;whiteSpace=wrap;html=1;fillColor=#FFCCFF;" vertex="1" parent="1">
          <mxGeometry x="80" y="480" width="160" height="40" as="geometry" />
        </mxCell>
        <mxCell id="nF6jmrL_8FKUZvZka1Eo-8" value="Servers and Compute" style="rounded=0;whiteSpace=wrap;html=1;fillColor=#FFB366;" vertex="1" parent="1">
          <mxGeometry x="320" y="200" width="160" height="40" as="geometry" />
        </mxCell>
        <mxCell id="nF6jmrL_8FKUZvZka1Eo-9" value="Applications" style="rounded=0;whiteSpace=wrap;html=1;fillColor=#FFE6CC;" vertex="1" parent="1">
          <mxGeometry x="320" y="240" width="160" height="40" as="geometry" />
        </mxCell>
        <mxCell id="nF6jmrL_8FKUZvZka1Eo-41" style="edgeStyle=orthogonalEdgeStyle;rounded=0;orthogonalLoop=1;jettySize=auto;html=1;exitX=1;exitY=0.5;exitDx=0;exitDy=0;entryX=0;entryY=0.5;entryDx=0;entryDy=0;" edge="1" parent="1" source="nF6jmrL_8FKUZvZka1Eo-10" target="nF6jmrL_8FKUZvZka1Eo-19">
          <mxGeometry relative="1" as="geometry" />
        </mxCell>
        <mxCell id="nF6jmrL_8FKUZvZka1Eo-10" value="Integrations" style="rounded=0;whiteSpace=wrap;html=1;fillColor=#FFB366;" vertex="1" parent="1">
          <mxGeometry x="320" y="280" width="160" height="40" as="geometry" />
        </mxCell>
        <mxCell id="nF6jmrL_8FKUZvZka1Eo-11" value="Edge and B2B Network" style="rounded=0;whiteSpace=wrap;html=1;fillColor=#FFE6CC;" vertex="1" parent="1">
          <mxGeometry x="320" y="320" width="160" height="40" as="geometry" />
        </mxCell>
        <mxCell id="nF6jmrL_8FKUZvZka1Eo-12" value="Storage" style="rounded=0;whiteSpace=wrap;html=1;fillColor=#FFB366;" vertex="1" parent="1">
          <mxGeometry x="320" y="360" width="160" height="40" as="geometry" />
        </mxCell>
        <mxCell id="nF6jmrL_8FKUZvZka1Eo-13" value="Marketing" style="rounded=0;whiteSpace=wrap;html=1;fillColor=#FFE6CC;" vertex="1" parent="1">
          <mxGeometry x="320" y="400" width="160" height="40" as="geometry" />
        </mxCell>
        <mxCell id="nF6jmrL_8FKUZvZka1Eo-14" value="Merchandising" style="rounded=0;whiteSpace=wrap;html=1;fillColor=#FFB366;" vertex="1" parent="1">
          <mxGeometry x="320" y="440" width="160" height="40" as="geometry" />
        </mxCell>
        <mxCell id="nF6jmrL_8FKUZvZka1Eo-15" value="Data Processing" style="rounded=0;whiteSpace=wrap;html=1;fillColor=#FFB366;" vertex="1" parent="1">
          <mxGeometry x="320" y="520" width="160" height="40" as="geometry" />
        </mxCell>
        <mxCell id="nF6jmrL_8FKUZvZka1Eo-16" value="Data Warehouse" style="rounded=0;whiteSpace=wrap;html=1;fillColor=#FFE6CC;" vertex="1" parent="1">
          <mxGeometry x="320" y="480" width="160" height="40" as="geometry" />
        </mxCell>
        <mxCell id="nF6jmrL_8FKUZvZka1Eo-17" value="Business User Services" style="rounded=0;whiteSpace=wrap;html=1;fillColor=#6666FF;" vertex="1" parent="1">
          <mxGeometry x="560" y="200" width="160" height="40" as="geometry" />
        </mxCell>
        <mxCell id="nF6jmrL_8FKUZvZka1Eo-18" value="SAP Platform" style="rounded=0;whiteSpace=wrap;html=1;fillColor=#CCCCFF;" vertex="1" parent="1">
          <mxGeometry x="560" y="240" width="160" height="40" as="geometry" />
        </mxCell>
        <mxCell id="nF6jmrL_8FKUZvZka1Eo-19" value="Integrations" style="rounded=0;whiteSpace=wrap;html=1;fillColor=#6666FF;" vertex="1" parent="1">
          <mxGeometry x="560" y="280" width="160" height="40" as="geometry" />
        </mxCell>
        <mxCell id="nF6jmrL_8FKUZvZka1Eo-43" style="edgeStyle=orthogonalEdgeStyle;rounded=0;orthogonalLoop=1;jettySize=auto;html=1;exitX=0.5;exitY=1;exitDx=0;exitDy=0;entryX=0.5;entryY=1;entryDx=0;entryDy=0;startArrow=classic;startFill=1;endArrow=none;endFill=0;" edge="1" parent="1" source="nF6jmrL_8FKUZvZka1Eo-20" target="nF6jmrL_8FKUZvZka1Eo-5">
          <mxGeometry relative="1" as="geometry">
            <Array as="points">
              <mxPoint x="640" y="640" />
              <mxPoint x="160" y="640" />
            </Array>
          </mxGeometry>
        </mxCell>
        <mxCell id="nF6jmrL_8FKUZvZka1Eo-20" value="Desktop Services" style="rounded=0;whiteSpace=wrap;html=1;fillColor=#CCCCFF;" vertex="1" parent="1">
          <mxGeometry x="560" y="320" width="160" height="40" as="geometry" />
        </mxCell>
        <mxCell id="nF6jmrL_8FKUZvZka1Eo-21" value="On-Premise" style="text;html=1;strokeColor=none;fillColor=none;align=center;verticalAlign=middle;whiteSpace=wrap;rounded=0;" vertex="1" parent="1">
          <mxGeometry x="80" y="170" width="160" height="30" as="geometry" />
        </mxCell>
        <mxCell id="nF6jmrL_8FKUZvZka1Eo-22" value="IaaS, PaaS, SaaS" style="text;html=1;strokeColor=none;fillColor=none;align=center;verticalAlign=middle;whiteSpace=wrap;rounded=0;" vertex="1" parent="1">
          <mxGeometry x="320" y="170" width="160" height="30" as="geometry" />
        </mxCell>
        <mxCell id="nF6jmrL_8FKUZvZka1Eo-24" value="SaaS" style="text;html=1;strokeColor=none;fillColor=none;align=center;verticalAlign=middle;whiteSpace=wrap;rounded=0;" vertex="1" parent="1">
          <mxGeometry x="560" y="170" width="160" height="30" as="geometry" />
        </mxCell>
        <mxCell id="nF6jmrL_8FKUZvZka1Eo-25" value="" style="shape=image;verticalLabelPosition=bottom;labelBackgroundColor=default;verticalAlign=top;aspect=fixed;imageAspect=0;image=data:image/png,iVBORw0KGgoAAAANSUhEUgAAAaIAAAB4CAMAAACHBwagAAAAkFBMVEX///8AidYAh9UAhdUAg9QAgdQAftP0+f07mtz3/P7u9fuMxOoalttDn913s+Rcpd8AjNfn9Pu12fHG4fTe7/llseNXqeHR5/ao0e7Y6vd6uebr9/zg7Pir0+89nt1IpeCFv+iby+y93fNgruJVqOCXx+vL5fYAdtCIwehZreJiqeA0lNl9vOep1O/E3fJvruLdeytvAAAPHUlEQVR4nO1d6WKiOhQuSVxo1cG92nGpVm9bO3fe/+0uSk5IQk4WgTpz5fvVKmDIR85+wsNDDYh/1XHVBtVh2FvceggNrDiS/a2H0MCKZ9qe33oMDWzYMvp26zE0sKCzZ1FrfOtRNMAxWbOIdG89igY4jicaRa3RrYfRAMUzIVFEEvH/yw3H0sCEd5YyFLFn+H/X2N5/FuLUUEhBIvHJ73bjwf5JGHbpmaGIHuCTDiHrW46ogYr5WQ2dFxGJ4aNn1lgOfxB+tTOGIroVn72R1HSI8XMafCe+2hlB6SIawmeTs2pi2xuOqoFAPGOcoYgtxadPlw/p5IYDa8BxjijAIoqEDRevL6KPNob37TFOKDAkEzLnvLHdDcfW4IzniAiGCMmzEEtOHOk2FsNtsaU5QxGZic9fevA5O1hOb1A3OnuZoYjmWYhdrp+SoeUKDeqFZChcyNjkX+1z6ujgdiO8dxwTeQkplsEwkTXU8YaDvGuMmMoQWeeGwbO8vEj/hqO8Zzy1VYYitsq/7Cvf5fmJBt+H+KOlEhSRXr6IFpFCEUk6NxzqnQJSD/JSec2/fmLad1+3G+qdQjcULitFclF72teENKG678UzKTCkeKjjIoEb/GoNqseWFRki0WN+wLQgBZtQ3Xci3hcJUFJ5D3FRDMp1QQ1qxrDLDAxFTIryjExHyNZEgzphMBQui0gO8mxMhxDSVNV9C1YGQ+GMlmSxvZgEYbqMmlDdd+DJYChclshMOujZTFHEmpaW2tGZ6hEF4+x3zTQ2hnf9GK6NhkKkxUknbeSopqqubhwTRIBpTo8e/JGYPNUWqtv0NxfcdTHLjiLyK9IaiswmX0ble02DG7dJBnbH3WedEz7zVBZgR0xfRTWG6kQ4g07r+YG/AVtUfKXySz5wiYrDqLaquk5eKHG/3tcksogvOWEXWw6M6grVvebPD73b7OEMXxvkJBfKGYM/0sG1VNWtpUKJe220HVuklxp8+7QuonpCdQtZ/d2rg6yn6JRFJEv/IRIgyg+voaqOq7/sl+nSfcL/EK8W6aUa0rYj+fGVT2EnM/NJZnMSWvX1/wbElqVBEtmOjvuORaTWfVeDUSbnyCFbTHcZw7DZ0apcWTgXUQ2hukz9kR7Pk9xjKNA275ozurU5RYLVah/zSbbGyWfM47et+6shf7MIL9Wb72BBbpXWanPkPCaYmopLvWf9XrCzRHQiquysMPaQc+eTqgzVwdphQ/h50qvw8n8DYovBnUoX5VhD5Y8RrQqjNMDLJo8j3ttOXgfbymgpPQ9DS6hVQZWhOv5YXKJQX9lY7yyWavVFNePJEfyR0K6snYV3yRB2Dixxw4aQR+d5/yNYZVdLDYoaK3/M3FYWSXuWFw64ZXdVEHa0LQxtoieWZJ6OytpZOCn8YeHBDdL/O1ug48nieJyH5dTs0QLNj7dqLZ3dpBpZxLceAjsexPIfGUudrKabzeZjOTLe+mQ0PSXROXMcJZuD//ifrYtI82+8nCJARe0sYCBs+f+frljqsusF4f0Osv9PqJE4/Jhm0BZuvOdn8kWxeIsYveTu2wbXfbxPsm/P80oIJd2VnyB4sZpomrCahzCUjqOKveqEmQ0Xg3jdCVukU0o8QAVFn+zyAR74+9mmGbTSmXid/RLfk++JiNqPYnRlvKF6ZQhhXa8gjDWeQ4h68FeAnDsPdGb+zSCMdGeVR72Vpk4Fv31cN6mrkC9LhlPEHwqiU9SXnp54INWI6hR1BsbKHUIHbvdxYU1ysyd1SAHGguOu/cFtSCnkA7mjH8gZXt61NInVULRk5qufMT9htVVs7bQcLNnw4ph2YYvobA+WrqqbwD6FeeD0CDOGyFEfiuSUViUUHZQYmkrRWNmgh3B9xI/sOTjaWe9G1/d6i7/HTJQOd/IMkeJB83iV3O8kY8pQBSQmStqcoBKKxtzsPJsB6Z8KRWMxbYSy5LTur09JPpO0a5d1tuCcvDcgh1ciQrlE6Rx5z6B4njhtSOXrMkowwLAi2eKtgKJs2zfCot7b9GOdUNn0WORGRDQdZ/MxGW3yT62hMrubY4iDGbv3bGAlY2m86EXdMgBKyrFysDhHR+AlxZFPi2qoVkDRxXNhyXNGQGe0zq/1CAqc0KW8Xo49mHzU7nm47A9smV2TrE/NzECOSu48w/WK9rTwii0S+m4RSGqoz21pitg4/YMoaiE/8oMzQRLd75qJb3D/yK5XjSbzS6hRV3KTaH4XVL097m6rRRVuLMF+V6e6NEV0e2bI/FY07sWlUrko8t/4/OMJygXagpJd1BihmLtKtHSUCtWt+KSe1I9jft9h1gjMFtMWdmmKovS5RcK6Ha5LjU8TODHS1vQa1tbJxko4/NMR/DplNonmQyzkcD/4vYUkXyEE3NJ5LU8R7qWDtje3c4BBjSnVkS0bjl30QfcA3CgRquN2gbRjLtybWQDaEPe5WisosAooKo4wAywirKUHlKrZqIrt+VPL7mXLsHVE2NXtLO8UGwtfEQG53S3or4Ib8ttF0cJJEVbcKaJXiCQBkWSuxsE77RwDfog3YWZdsOElANG4ojrj0UIS+ZZI7IiSdZJRniI00PGG3kAGsL6I6cuJXe0r7reOjtXjLeLaWhBemGTyfyHm7tvIAjUXpse9AoqQh5CrP4s6huo403eOQJbdDnPwq+Pakiq++arx/aTcxfFNv3P71jiS8hRhs8UNUkubAI9vmSiytapERddBxy4sWte6qtDgkcdIjPbOKxhDXjkpiPQZBVJpigj5aT5xjwpXwL8Mo8hVO+8s3nC3R8i4LkcOVQonk74BE9qrkWXOyabG2wKK0DdyOylC6ihEeTOuNOaooLNmw7120bT2uxZwTUeQ8N3N577BE+xxJbv9V5oibAvsBVdFFmG8iBCK7NnwQirPiLcgjvzkkQLxRgpzHYZw+9xpw7058AMoTREW5IAq2tMAxR6jyJHg9qojtFYZFy8ZbnhDchVpnYWaBncjy4o7wAQxLMtThDwlIKsIRQFzWPhJh0Hm12UXUlN3RdcWBPHN+iPFF19GbUdKasJNG1Q01EbRk7+g0U91lZR6du+MQ0xvl41YwAriTLTdYmdgKVTqkMpcZ1N0tQFFaNrGSRFisQXoa+1MVyDUu6R9FWLW+eg3GT90/tEkt93rggwEnv8d8Kp+dBXNnfki5KevpcipRNreMbWngIhqYHLHJYwlWNyO/Hm0bNgBFKHeuosiLHri2+gT6RQdHCeGaPZpwDoKa2d59789JE58AShM2zsZS68ijCLxCq5WBoZDOc+5bUIrIJUdlCjHLCrjhQNKk4tlMDkg8GMLOda2iiDWO+g8uqCc51p9YZnsYYBZF3Llf4PUHBoLeYduJJtbVp4i5KHmFl3oy53mrnunYbssBeiMkBw5lBpZXIrcq0AbWcDmbFl/uDaKIK3/Yb9XHfZs+BVR6YBEuSGdhgAWJ3l7skFEms0BCMhAOLQgUISuxWspuq532pENtxd1meHIDSoX9w3VQZS2ZY8b/cvvBgnjfYK9ba+eqI0iKJhn5q/NcBbOX5Pa8bctie+LlCEb5BgN+A+mCigpX+Gwf7jhhW8ZCgIrlCIIhYYYYO4nHg232ND358hvZxioGnXugAGmuWntg5Z07tYKVQ2/sQOmkG3CKMIa7iASHlBLNsT3p+VTeNUGwQGJcqubKQAFLM7ClAkUEhqKYSDM6rQjIS+FGeawYUs4RVtLrheBsyT7yk4G256d2jPgs/OMKAF0W+kbmL2C0ppCAYoz4DhyHAn92uEUwZn+km7sshWubmQYu5Zn/hB4SNIRFNK6jXSI91O9WI9nIHw2jPoJVarIoTNR5xNK0Yt3wgSu6DK4rWESOxxp3ByEug1vURLgPjSmYDCo0zeEDISHDQmdmdpWOgDRyFikaOOgSEhs31SMs94gtIxdxrtvRNX9dpYJCBafYCGYk1qYFNSHLfAjMIPSaqOJL9LL4atIbCJnNjkLcDc1lNowc++7jpwbJog6aJ9HD4S3yqeohPSrDwJpaXJx8wf7CooePkFmWx63o0jTOLMX5ZrwvSOqTsEMcsfvTbGiu0CSAFDy7RlxmojsYdF230mJqSsomsOksD2ynuMn0SY3d1pdJXen8o6oOgIYsC48hwOunuR8wEi8b0hUlUb6wh2dZ+16XSQVwNO+aQHEqy4VFLkrdspu2eLbekR6VjMAtItn14NwjfIepBkUpviGBEVYjJBX+WHvbM/WCJ2VoOhR+IwkedfHM3ztpmYNPEkjJ0Ok9EYWvhFVq7+f22iefUlgpwpKD0JH/7BA0bsiO0XYesUnMh4eTuzC9BxzXYEim4I4igeX0GQ5B5bil5+vn1njOKfIo6SqgpfOeEZUFb2hQ3g6W88fXcGq48o+r3qx7i+jaMR5bo8SlvwYfG2/Bv3oMoGEjIdlKJK3QiC01Usv/rUcfPZ754KZbOAZRe56oUo2VvaMqNqyA0Iv+IpdaKrmbtSLXzRKu1354Ur5o4xSvpNC6mtPSlH0sJIL4EmWAZN3x8h00dAdoalme3LPiCquZ2xRNwRTJRjh+ZToTyRShUHOhUsoRT+8KHrYWWefkle/cVe0Z69nRBV/Owu8RCkgWghdHpdb8NWHBaGxNDV7kIvZXpaih2Ef7SQhbHaR+vO2TSxnW30Fp/LM8IyoYqE6kQGKkH4QE6BC/WxZ+UaiinJ9lOjzSFjvIm1LU5QKu8LFL1ekbMbl+bS3TtGzobKdTI9eHGE58tE/7Qz+ci5VJHBSKtRf4W8XilH0+JC0mGR/tRLu+f6Ecwqua/bxPz5qc7VuM0kBpTqJtXuHb9+1/+W4Wm4SMyka/swX3Iy3a9LOit56y6q3Ap887xNeUdduk/Vy9b38xIvd01tCGfPOStA/cW/TMx4Xx+Oxpnc2pjxNFvPF5OVb996NJ+PXaTeV2zSwATZElDW4EpP56qt/SlgoOxmq2PKxAYrhYvc+6yaXpXMFO9kyqvbtLA0AL2e51j+VIgeWUWA7SwMX4uH8dfnjFF0p1wzLyFIu3yAM8ePP0fazm3oN5ZeOjDt7fUpN6DyOD4N+kvUxVkcOR1CZZgMdcef4unzrsRatSK4Z0BjeV2Px632fklOV0sFh7yppYMJwdPh9JofVTU4GzxKSBhdMRofBmrRZ4e0TtaKit7P89fgPyKDYPSxvhLAAAAAASUVORK5CYII=;" vertex="1" parent="1">
          <mxGeometry x="551" y="98.72000000000001" width="178" height="51.1" as="geometry" />
        </mxCell>
        <mxCell id="nF6jmrL_8FKUZvZka1Eo-31" value="" style="shape=image;verticalLabelPosition=bottom;labelBackgroundColor=default;verticalAlign=top;aspect=fixed;imageAspect=0;image=data:image/jpeg,/9j/4QC8RXhpZgAASUkqAAgAAAAGABIBAwABAAAAAQAAABoBBQABAAAAVgAAABsBBQABAAAAXgAAACgBAwABAAAAAgAAABMCAwABAAAAAQAAAGmHBAABAAAAZgAAAAAAAABIAAAAAQAAAEgAAAABAAAABgAAkAcABAAAADAyMTABkQcABAAAAAECAwAAoAcABAAAADAxMDABoAMAAQAAAP//AAACoAQAAQAAAEsEAAADoAQAAQAAAIACAAAAAAAA/9sAQwAGBgYGBwYHCAgHCgsKCwoPDgwMDg8WEBEQERAWIhUZFRUZFSIeJB4cHiQeNiomJio2PjQyND5MRERMX1pffHyn/9sAQwEGBgYGBwYHCAgHCgsKCwoPDgwMDg8WEBEQERAWIhUZFRUZFSIeJB4cHiQeNiomJio2PjQyND5MRERMX1pffHyn/8AAEQgCgARLAwEiAAIRAQMRAf/EABwAAQABBQEBAAAAAAAAAAAAAAAHAQIFBggDBP/EAEwQAQACAQMBBAQGDwYGAgMAAwABAgMEBREGEiExQQciUWETFHGBsdEVFjI1NkJSVHN0kZKTssEXIzRicqEzU1WCs+FDgyRjokTC0v/EABwBAQABBQEBAAAAAAAAAAAAAAAGAQIEBQcDCP/EAD8RAQABAwEDCAgDBgYDAQAAAAACAQMEBRITMgYRFBUiQlKSFiEjMUFTcqJUYrIzQ2FxgsFjgZGh0eEHg7Hw/9oADAMBAAIRAxEAPwDqkAAAAAAAAAAAAAAAAAAAAAAAAAAAAAAAAAAAAAAAAAAAAAAAAAAAAAAAAAAAAAAAAAAAAAAAAAAAAAAAAAAAAAAAAAAAAAAAAAAAAAAAAAAAAAAAAAAAAAAAAAAAAAAAAAAAAAAAAAAAAAAAAAAAAAAAAAAAAAAAAAAAAAAAAAAAAAAAAAAAAAAAAAAAAAAAAAAAAAAAAAAAAAAAAAAAAAAAAAAAAAAAAAAAAAAAAAAAAAAAAAAAAAAAAAAAAAAAAAAAAAAAAAAAAAAAAAAAAAAAAAAAAAAAAAAAAAAAAAAAAAAAAAAAAAAAAAAAAAAAAAAAAAAAAAAAAAAAAAAAAAAAAAAAAAAAAAAAAAAAAAAAAAAAAAAAAAAAAAAAAAAAAAAAAAAAAAAAAAAAAAAAAAAAAAAAAAAAAAAAAAAAAAAAAAAAAAAAAAAAAAAAAAAAAAAAAAAAAAAAAAAAAAAAAAAAAAAAAAAAAAAAAAAAAAAAAAAAAAAAAAAAAAAAAAAAAAAAAAAAAAAAAAAAAAAAAAAAAAAAAAAAAAAAAAAAAAAAAAAAAAAAAAAAAAAAAAAAAAAAAAAAAAAAAAAAAAAAAAAAAAAAAAAAAAAAAAAAAAAAAAAAAAAAAAAAAAAAAAAAAAAAAAAAAAAAAAAAAAAAAAAAAAAAAAAAAAAAAAAAAAAAAAAAAAAAAAAAAAAAAAAAAAAAAAAAAAAAAAAAAAAAAAAAAAAAAAAAAAAAAAAAAAAAAAFGO1266DQ151GetZ8q+Mz8zWupup6bfWdNp5ic0x61vyP/AGiLUazUam9r5MlrTbxmZ55bvTtFuZUaXLldiH/1rcrUI2ZbEO1JLOfrrb8duKYb2j2zMVeP2/aX81n+JH1Igkb6OgYGzw18zW11PJS99v2l/NZ/iR9Sn2/6X80n+JH1IiF3UOB4Puqt6yyfGl37f9L+az/Ej6j7f9L+az/Ej6kQivUOneD7qq9ZZPjS99v+l/NZ/iR9R9v+l/NJ/iR9SIZUOodP8H3VOs8nxUS/9v8ApPzSf4kfUfb/AKT81n+JH1IeFeoNO8H3VOs8nx0TB/aBpPzSf4kfUf2gaT80n+JH1IekOoNO8H3VOs8nxph/tA0n5pP8SPqP7QdL+aT/ABI+pDyh1Bp3g+6q3rPJ8SYf7QdJ+aT/ABI+o/tB0n5pP8SPqQ8K9Qad4PuqdZ5PjTD/AGg6T80n+JH1H9oOk/NJ/iR9SHA6g07wfdU6zyfGmL+0LSfmk/xI+o/tC0n5pP8AEj6kOB1Bp3g+6p1nk+JMf9oWk/NJ/iR9R/aFpPzSf4kfUhxQ6g07wfdU6zyfEmP+0LSfmk/xI+pWPSFpJn/CT/Ej6kNh1Bp3g+6p1nk+JP2i6v2fVTFZvOK0/lx3ftbRS1b1i1ZiYnwmJ5iXLVbWpPNbTE+5t/T3Veq27LXHe03w2mO1WZ+j2S1edyc2IbeNPn5u4zMfVeeWzdTzA+bSavDq9Pjz4rdql45iX0otWkqSrStPXRuqVpKnPRUBRUAAAAAAAAAAAAAAAAAAAAAAAAAAAAAAAAAAAAAAAAAAAAAAAAAAAAAAAAAAAAAAAAAAAAAAAAAAAAAAAAAAAAAAAAAAAAAAAAAAAAAAABTmGJ3jcsW26HLqLTHMRxWPbbyZXuQv1pvPxzXfFsducWGZju87ebP0zDrl5UId2leebEzL+5s1r3vg1HVanLqc18uS02taeZmXzg6JGMYQpGKLyltV5wBcoASCgAKSBK5RaACkgKgoqoLAAFoC8UAAUVUAAAWrpWgkzoLffg81tvzX9XJ34+Z8Lez50vRw5bw5cmHLTJSZi1Z5iYdD9PbtTddtxZ4mO3Hdkj2WQnlDgbq7TJhTsz4/4SSDS8nbjua++LPgI03AAAAAAAAAAAAAAAAAAAAAAAAAAAAAAAAAAAAAAAAAAAAAAAAAAAAAAAAAAAAAAAAAAAAAAAAAAAAAAAAAAAAAAAAAAAAAAAAAAAAAAADzvetK2vaYiKxzMz5HvGtdU7vXbtuvFLcZcsTWkece2UFWtN7Ta08zM8zLO9Sbvk3Pccl4mfgqT2cceyGAT/R8HouLSsuOfGi+fk7696uGIA2zDAOQFAABQBauWrlACQUAVBQkFgAC0kUleAACisqAAAStJAG5dG719jtxjFktxhy+rbnwifKWmromYnmJ4mGPlY8MixctT4ZvS1dlauQnF1RE8xEnDTujd7+yW3RjyX5zYfVnnxmPKW5OY5NiePenanTtRql9m5G7bhOioDyeoAAAAAAAAAAAAAAAAAAAAAAAAAAAAAAAAAAAAAAAAAAAAAAAAAAAAAAAAAAAAAAAAAAAAAAAAAAAAAAAAAAAAAAAAAAAAAAAAAAACjQet96+K6T4ljt/e5Y9bjyq3PWarFo9Nlz5ZiK0rzLnjdNxzbhrsuoyTzN57o9kN3oeD0jI3k+CH6mt1HJ3VrYjxSfCAnSOgAAAAKAAtXKAACgKgALFAAFsrlq8FFVAAAJUAAAFoAAAozvT27X2vcsGbmexM9m8e2LeLofDlx5sdMlJ5resWifdLlpMHQO9/D4bbfmt62OOcfPnHnCL8osDbhTJhxR4/pbjSsnYluZd5JoCGJCAAAAAAAAAAAAAAAAAAAAAAAAAAAAAAAAAAAAAAAAAAAAAAAAAAAAAAAAAAAAAAAAAAAAAAAAAAAAAAAAAAAAAAAAAAAAAAAAAAoDC75umPbdvzZ7THa44pHtt5LrduVy5CEKdqVVs5xhGsqtB683rtXrt+G3dSe1lmJ8Z9iM4emo1GXUZ75clpta88zMvN0fAxI4mPC3T3/H+aJ5N6V69OdV8HK2FzOeKvJyoChyC3kFwtABsOk6V3zV6fHnw6aJx5I5rM2iJmPkl9H2l9Rfmtf4lfrYddQwYy2a5NvzPWONkV9e5uNWG0/aX1F+a1/iV+s+0vqL81r/Er9avWOD+Kt+aivRcn5NzytVG0/aX1F+a0/iV+s+0vqL81p/Er9Z1jg/irfmodFyfk3PK1ZRtX2l9RfmtP4lfrPtK6i/NafxK/WdY4P4q35qKdFyfk3PK1UbV9pfUX5pT+JX6z7S+ovzSn8Sv1nWOD+Kt+ah0XJ+Tc8rVVra/tK6i/NafxK/WfaV1F+a0/iV+s6x0/wDFW/NQ6Lk/JueVqcjavtK6i/NafxK/Wr9pXUX5rT+JVXrHB/FW/NQ6Lk/JueVqg2v7SuovzWn8Sqn2ldRfmtP4lfrOscH8Vb81DouT8m55WqD13HBk23V302rr8HlrETNfHut4d74vjWD8v/Zb1rp0eLMseaj3jpOpXI7UcO/5avoHz/GsH5f+y2dXg/L/ANjrXTPxmP5qLup9V/AZHlq+gfP8awfl/wCx8awfl/7KdbaZ+Mx/NQ6n1X8BkeSr6B8/xrB+X/sfG8H5f+x1tpn4zH81DqfVfwGR5Kvd9u363LodZh1GO0xNLRLFfGsH5f8AsfGsH5f+y25qWlXIVjLMx/X+ai6Ok6vGW1HAyPLV1Htuuxa/R4dTimOzevPHsnzhkEKdA9SYcWqnb8mb1Mv/AA+fCLf+01+TnuVbtW8i5C1dhOFK+qsa86RwjfjbhvrNy3Lm9047K4B4rgAAAAAAAAAAAAAAAAAAAAAAAAAAAAAAAAAAAAAAAAAAAAAAAAAAAAAAAAAAAAAAAAAAAAAAAAAAAAAAAAAAAAAAAAAAAAAAAFJ4QZ1rvfx/cPi+O3OLBM1jjznzlInV+9V2zbb1rbjNmjs0jziPOUBzab2m0zzMzzKT8nsHan0mfw4Gn1PI/c0Xq8rYlWEuaR6QqthWFyioAoAAM30/tV903HFhmJ+Cr6+WfZWv1+DCePyps6X2j7GbdHbrxmzcXye72R8zVavm9FxZ7PHPgZmDjb696+GDYq1rSlaUjs1rERWI8oVBz3n50pAAAAAAAAAAAAAAR76QdhnXbdGvwU51Gljm0R42xef7PFB1OLxzDrPumOJjmJ7pifNzf1bsVtj3e9KVn4tm5yYZ93nX5mq1Cx+8il3J3UPX0a5/Q1/swp2YelZi0cwq0/rTPZi8uzB2XoG0bLz7J2YegbS7ZePZg7MPZbJtGyYb2w5ceTHPFqzzEw6e6Y3rHu+14s/MfCV9XJH+b2/O5hbt0Rv07VudceS3GDN6t/d7JZmDkbu9sy4ZtHr2m9Kw9uFPa2nRwtraJiJieefCVyQucAAAAAAAAAAAAAAAAAAAAAAAAAAAAAAAAAAAAAAAAAAAAAAAAAAAAAAAAAAAAAAAAAAAAAAAAAAAAAAAAAAAAAAAAAAAAAAKPPJkpjx2ve0RWsczM+UPVGnpA32NNpY0GK3GXLxOTjyr7GRi48snIhaj3qvK9cjatznVHfU2833XcsmXmfg6+rjrz4QwES8YlfDpFi1GxahbhwwRS7OU5bVXrErnnC6JerzekLnnErolcLxSJVVUAemHFfPlpix17V72itYjzmy2UqRptV9xT1tr6Q2f4/r/AIxlpzgwd88x3Wt5R/VMM98sZtG202zQYtNTiZr33t+Va3jLJudapm1zMq5OnDHgSrCxtxZ5u8ANcywAAAAAAAAAAAAABq3V2xV3raMmOlY+MYonJgn3+cfO2k54WzhGcdmr1s3Z2bkLsOKDkiJtS01tE1tWeJifKX11mLRzDdvSDsHxHcI3DDXjDqrT24iPucnn+3xaDS0x3wjuRZlC5zOm6fmRyMeFynefQK1mLRzC7hjNksFRaKKSuOBet4ImazzE8TC7hSRTZdB9Cb99kttjBlvzmwRFZ5nvtXylvkcd7lzpzdsm07pp9RWZ7Pa4yV9tbeLpvTZ8ep0+PNjtzTJWLRPulIcG/vbOzXii5tr+ndEzNuFPZXfXR9QDOaIAAAAAAAAAAAAAAAAAAAAAAAAAAAAAAAAAAAAAAAAAAAAAAAAAAAAAAAAAAAAAAAAAAAAAAAAAAAAAAAAAAAAAAAAAAAB4ZclcVJvae6sOa+rMmp+z2pnUWme369Le2v8A68E7bvqu1aMNZ7o+6+VHXVW0zuO32tirznwevj48ZjzhqtO5VW8LlFbsVp7CXspz/NL4/wCT1ydMlfwJypxcVEZ1nmHpEvgwZe3Hf3T5w+yJdojKlac9PchUo7L1iV8PKJXQuWPRe81YXKPRdCxWFVF6Rehtn5vbcstfVrzTDz5z5y0fbNBm3DXYNNj55vbvn8mPOU+abT4dLp8ODFXs0x1itYR3X8/c2Ojw4p+/6Wz0zG27m8lwxe4CEpEAAAAAAAAAAAAAAAAKADG7vtmDddt1Oiy/c5K+rb8m3lP7XMur0mfQ6vPptRXs5cVpraHViKfSPsPapTd8FPWrxTUREeMeVv6MDNs7dvbp3Uh0DP3ORuZ8E/1IlrPZnmHtE8xzD548F8TxPc0kqJ7CfM9wiYmOVVjJUWrhaLRctFVE0+jnfvhcNtszX9akdrHz5x5whd923a7NoNZg1OK0xbHaJZGNelZuwq1uqYMc3Dnbrx04PqdYkcMXtO5Ydy0GHVYpji8d8eyfOGTiPFJo1jKPPRyucJQnKE6dqNeaq4BVaAAAAAAAAAAAAAAAAAAAAAAAAAAAAAAAAAAAAAAAAAAAAAAAAAAAAAAAAAAAAAAAAAAAAAAAAAAAAAAAAAAAAAAAAt7uHy6vURgw2vPyR8r6u6Iajumq+Gzdms+rXuabW9Qjg4U50459mDKxLG+vUp3fix97ze02tPMzPK1QcqrKcp7Va+vnSXZpzcyHuq9q+x25fDYq8Yc/rRx4Vt5x/Vh8WTtR70ybxtuPc9uz6a33UxzSfZavghKK5cOW+LJE1vjtNbR7Jq+hOQWv01PTej3p+3x+xP8ANH4S/s5/ruBuMnbhwzZGF8S+el+1HvesSn6P1e0SrErIXQuWPSJViXnDYumtondNypjtE/A4/XzT7vZ87zv37di1O7PhgrCEp3IQokDorZ50minWZa8ZdREdjnxrT/23YiIrEVrHFYjiIjygc1ysi5k5E70+8ltizGzbhCgAxnsAAApa0ViZmeIBVZbJWn3Vogx48+fvr6lPyp8Zfdi0eDH39nmfbPeDHxkvb7jDe3v4XRi1c/8AxVj5ZZgBh5xa2P8A46z8krZtnp93gvEe2O9mgGFrmx37onifZL1fdl0+HL93SJn2+b4MmmzYe/HPbr+TPjAKiymSt45j9nsXgAoAAA8s2HFqMOXDlpFseSs1vWfOLPUCMqxrtOYt82jNs+559Hk74rPax2/KpbwljE7debD9kts+N4qc6nSx2o4/Gp5x/VBNZ5hHsqzu7nN3XR9IzemYsK144ca6JmJe0TzHc8SszE8sStG7hXme3BwrE8wLHspK3hcAt4FwCSvR7v8A8V1c6DNfjHl+45nwt/7Tl3d7kXHktjvXJSZi1Z5iYdKdLb1Xd9rx5Zn+8r6uSPfHn87d6df2o7uvvQPlNp27u0y4U7E+P+baAG0RMAAAAAAAAAAAAAAAAAAAAAAAAAAAAAAAAAAAAAAAAAAAAAAAAAAAAAAAAAAAAAAAAAAAAAAAAAAAAAAAAAAAAAABba0VrMzPER3zKla0pStajGbnqfgME8T61u6Go88vs12pnUZ5t5R3RD4ohyrXNSrm5s60r7KHYgkmHY3Nr107VVwcjSMxTxRp1rtPwWWm44q9157ObiPCfKUl+EPm1WmxavTZsGWOaZKzWW/5Oazc0fVbOVGvY59icPFH4/8ALA1DEjlY07df6PqQVSz6625j3vDV6TNoNbn0mT7rHPdP5UeUlZfT+NkW79i3ftT2oTptwczu2pW7k4S4oPrhc8a25h6xLKY8npXm0xERzM+EQnbpnZ/sXttaXj++yevln2T5R8yPuidl+Oa2dZlpzh088xz4Wv5R83imND+UWftT6ND3U4260vG2Y76X9AAjDcgAAAKWtFazM+D0w6ackxkyx760+tTT4vhb/CW+5rPqx7Z9rJgAAAAAAAA+LPpYvPbp3Xj/AH+V8lL9qJiY4tHdMexmHw6rD/8ALWPWr4xHnAPnFsTExEx5rgAAAAHPXWOxfYfdrTjj/wDH1HOTF/l7++vzOhWvdUbLTedpy4OI+FpE3wW9lq+Xz+DGyrO8t/mbXSM3oeXCteCfG5xjvVJpfHe2PJWa2pM1tWfGJquhHZOkxlSUSJ4enPLzInhbJ6xlzPQI7xa9QBcDcei99natzrW9pjBl9XJHs9ktOViZieY8YX2pyhchOjwyse3lY87M+GTrqJi0RaJ5iY5hcj/oPffsht8abLbnNgiI7575r5fsSAktq5G5bjOjk2Xj3MbIuWZ07UaqgPVjgAAAAAAAAAAAAAAAAAAAAAAAAAAAAAAAAAAAAAAAAAAAAAAAAAAAAAAAAAAAAAAAAAAAAAAAAAAAAAAAAAAAKMHvGr7FIxVnvt32+Rls2WuHFa8+FYaPqM1s2W17T3zKL8pdS6NjbiE/a3f0thp+PvLm3Xhi8gHNkgAAFeVAGk9ZbT8Y0tNbhrzlw/d8fjU/9I3x2iYhPlqxaJraOYmOJifNCm97ZbatyyYYifgb+vin3ez5na//ABtyg3tqel359u12rH0/GP8AkhvKLA2a9JhTi43zRL69LgyanPhwYq9rJktFax77PhrPKVvR9sk8X3TNTx9TBE/72/o6dn5kcTFncr76+5F8exK9ehBIG0bbh2zb8Glx98Uj1rflWt4yyQOdTnKdyc58UkojGMY7NABYuAAFJibcUr42nhV7aevOW1vyY4j/ALgfbSsVrFYjiIjhcAAAAAAAAAAAMVfH8HltXyn1qqPq1VOa1v51n/aXygAAAAAAhX0hbF8U1ldzw1/utRbjLEfi5OPH50dxPc6g3Tb8G5aDUaTPHNcleOfyZ8pj5HM+t0eo0Gsz6TPXs5Mduzb3+9pM+xsXNunDJPeT2fv7G4nxw/S+fxXCrXJMR3L4nlYpE8KLqVegRPILwBaM30/u2Xadzw6isz2YtxePbXzh0xpdRi1OnxZ8c81yVi1Z90uTEyejrfu3jttma/fX1sXPn7YbTTcjmlupd5E+U+nby10qFO3Dj+lLQDdoGAAAAAAAAAAAAAAAAAAAAAAAAAAAAAAAAAAAAAAAAAAAAAAAAAAAAAAAAAAAAAAAAAAAAAAAAAAAAAAAAAAAA17e80xXHjifHvlrjK71M/G4jyikMVDk/KG9K7qmRtdzsJJgwpHGh/EAaZmAAAAHjDXepNp+yW3WrSv9/i9fFPnPtj52w+CrM0/Nv6fmWcqzP2lq5tPHIswvWZ258MqIV2Dbc267jg0lImO1b+8nj7itfGXSmn0+HTafDgxV7OPFWKVj3Vav07tOg0Wr3DUYq8ZdRaJn/LHnEfLPe213LI1uGr2ca9a/Z7v7vj/p7kOtYVcWU4T4gBhPcAAAAfbpo4pM+2XxMhh/4dQeoAAAAAAAAAAAPPLHax3j2wxrKz3xPyMVPdIAAAAAACL/AEh7F8NgruuCnOTHEUzxEeNPK3zJQfPqowTps0aiKzinHMZIt4dnzeV63G5bnCTLwcq5i5Vu5ByzWeV5m+AjUZowTacUXn4OZ8ezz3KSjMo9p1a3LahSQAovVhesFF1F4C1cPu23WZNDrtNqMdpiaXie75Xwk+C+MtmdJUed2EZ27kZd+jrjDlrlxY8lZ9W1YmPnerDdP3m2y7baeeZ02KZ5/wBMMxz4pXGvPGlXHrsdm5OPhrVcAqsAAAAAAAAAAAAAAAAAAAAAAAAAAAAAAAAAAAAAAAAAAAAAAAAAAAAAAAAAAAAAAAAAAAAAAAAAAAAAAAAAAaxvuLi+LLEd0xNZ/owHi3rV6euowXxT5x3T7J8mj2pal7UtHFqzxMe9zTlVgSs5vSI8F39TfabejO1sd6KiqgizZqiivIoALwABXHlthy1yV8vH5G147xelb1numOWpzDJ7XqOJnDae7xql/JXVN1d6LPglwfV/21eo2NuG8p74s4A6E0YAAAAyGCeccMe+vT27pqD6gAAAAAAAAAAAW2nisz7mLZDPbs459/cx4AAAAAACMfSJv3xfTV23DfjJmjnLx5Y/Z86QNy1+Db9Fn1Wa3FMVZtPv9zmbX67PuOvz6vNPrZbc8eyPKGDm39i3sU4pJBoGB0jJ3k+CH6nzUjiHotiOIXNC6HGOyKgoqAC8XrRaqueunwX1GowafHHN8uSKVj32nh5JQ9G+wTm1N92zU/u8fNMHPnbzn5vB749mV29CLA1PMjh4dy7L+j6ky6XDXT6fFir3RSlax80PpUVShyaUtqtZAAAAAAAAAAAAAAAAAAAAAAAAAAAAAAAAAAAAAAAAAAAAAAAAAAAAAAAAAAAAAAAAAAAAAAAAAAAAAAAAAAAAKNY3vScTGorHj3X4/wBpbPLyy465KWpaOYmOJhrtSwbebiTtSp6+59T3x71bN2E/9WgD0z4L6fNfFbxr4T7Y8nm5BdtXLVy5anxwqlEJRlGko+6oA81wAAryoAqpzNbRes8WrPMAvt3JW5QlHjotrHnbRps9c+Gt4+eH0Nb2/UfA5uxafVv/ALS2N13R9QjnYULnepx/UjOXY3N7m7qooNoxleVOQAX4r9m8SsAZYfPgydqOzPjD6AAAAAAAAAAeeS8UrM+YPm1F+bdmPJ8yszzPMqAAAAAAwHUu802fac+omY+EmOzir7bW8FspRjHaq9LVqV25CEOKaNPSJv3xnU12zDb1MU9rNMT428o+ZHNK8QXyZc+bJlyWm18lpta0+c2ekQjmRelcuTrV0/TcOOJjwt0FQY7YgAvFQWgAKvv2vbtRuW4abRYIntZbcTPH3NfOZ+SHT+26DBt+h0+kwxxTFSKx7/f86PvRxsHxfSW3PPT+9zxxi58a4/b86UYSDAx91b25cUnOOUWo9KytzCvsrX6lwDPR4AAAAAAAAAAAAAAAAAAAAAAAAAAAAAAAAAAAAAAAAAAAAAAAAAAAAAAAAAAAAAAAAAAAAAAAAAAAAAAAAAAAAABgt40fwuKMtI5vTx99fNq3PM8JE4aPuGlnS6i1Y+4t61Pk9iBcq9M5qwzLUPyXP7VbnTcjnpW1Kv0PkAQhuAAAAAAFtobHoNT8Phjn7qvdLXfF7aXPOnzxf8We6yQcndT6Fm0jP9ld7E/7SYWbY31r1cUW1C2JiYiY8JXOqUrSvuRsAAABWtprPMMhiyxePexytbTWeYBlR82PPE91n0RMT4SCoAAAATPDwvnivh3g9b3ikcyx2TJNp5lS95vPetAAAAAAAmeI5nwc99a779ld1nHjtzg08zSn+afOUmdc799jNsnBivxqNRHZr7a185QJSrVahf8A3dEt5OadtS6TP+h6VjiHopCrTpvGIALxUFoACo2HpjZLb3u+HTTE/A19fPaPKtfL557mvTPDonojYPsPtFbZa8ajUcZMvd317u6vzM3Bx99e9fDBpNd1HoeHWlK+1n2YNyxYqY8daUrEVrERWI8oh6gkTmXv9YAAAAAAAAAAAAAAAAAAAAAAAAAAAAAAAAAAAAAAAAAAAAAAAAAAAAAAAAAAAAAAAAAAAAAAAAAAAAAAAAAAAAAAACjG7lpPjOnmIj1699Z9/sZJTjxeGRjwyLM7VzhkuhOUJxnH4I7+WOJ84JZbd9H8Bn+FrHqZJ7/dZinHtQw7mHlTsT7qVWLsbtuE6ADDeoAAAApMcwqAzO2ant0nFafWp4e+GWahjyWw5KZK+U98e2G14slclK3rPdMcuocnNT6Zibqf7W1+n4I9qGNu7u3Thk9AEka8AAAAXVyWr5rQH0xqJjxekamPY+IB9vxmPYstqZ8nygPS2W1vN5gAAAAAAA882bHgxXyZLRWtIm1pnyir0RZ6Rd++Dw12vBfi+Ti2aY8q+z53leuRt29urLw8WeVkQs07yN9/3fLvO6ZtVbmKfc4qz+LWrGVjiFtKvVGrs5TltVdRxseFmzCEOGAAsZYqC0ABUB6YcOTPmx4cVecmS0UpX2zbwVj2lJSjGFZS+DdehNgndN1+MZac6bTTFp5juvfyj+roXiGC6d2XHs+1YNJTibRHayW/KvPjLO8eKS4tjc2qR73xcr1bOlnZk59yPqh/JcAyWsAAAAAAAAAAAAAAAAAAAAAAAAAAAAAAAAAAAAAAAAAAAAAAAAAAAAAAAAAAAAAAAAAAAAAAAAAAAAAAAAAAAAAAAAAAfJqtPXUYL4recd0+yfa0W9L4r2peOLRPEwkRrW96TiY1FY91/wCkonyo0zpGN0iHHa9/0/8ATZadkbFzd14ZMAA5s34AAAAAB4sjtmo7Npw2nunvqxy3mYmLVni0TzEtnpWfLAzIXacPf+l45FmN61OFW4j5dLqIz4a3jx84fU69au27tuFyHDNFpRlGWzUAei0AAAAAAAAAAAAAAABjd13HBtug1GrzTxXHWZiPbPlDmfWazPr9bn1Weeb5bdqfd7m9+kLfvjetrt2G/wDdYJ5yTE91sns+ZH9I4aTPv7dzYjwxTzk7p25sb6fHL9K+I4hUGtSsVBaAAqAAJV9G+wfC577vnp6lOaafnzn8a3zeCOtr27Pum46bRYeectuJtH4tfOfmh1Bt+iwaDR4NLhrxjxUitY+Rs9Px9ue8l3UV5S6jubHRYV7c+P6WQAbxAQAAAAAAAAAAAAAAAAAAAAAAAAAAAAAAAAAAAAAAAAAAAAAAAAAAAAAAAAAAAAAAAAAAAAAAAAAAAAAAAAAAAAAAAAAAAFFmXHXJS1bRzExxMPRRZKMZRrGXuqUrzNB1GC2nzXxT+L4T7Y8nhHe2reNJ8LhjLWPXx9/yx5tVjw5cm1zTa4GbONP2U+3D/wDfwSbEyN9Z5+9T3qgNMywAAAAAH06DUfAZ+zM+rf8A2lszTrRzDYdv1Pw2Hs2n1q90p/yT1TbhPDuz7UeD/hptTx/30f62QATZpwAAAAAAAAAAAAABrXVO912fac2aJj4a8djFX22t9Xi2OZiI5nuiHO/WG+Tu+7WilucGDmmP3+2WNl3t3b/M2uj4HTMuFK8EONrPatkvbJe02taZtaZ85s9YWVjiF6Oyk6bbt0jHmFQeb1ABUAABsXS+xzvW74dPaJ+Ap6+eY/Jr5fPPc9IQlOUIUY+TkW8axcuz4YJN9HWwTpNHO5ZqcZdTEfB8x31x/wDtKDzpSlKVrWIiIjiIjyh6JNZtxtW4wo5RmZVzKyLl6deKqoD1YwAAAAAAAAAAAAAAAAAAAAAAAAAAAAAAAAAAAAAAAAAAAAAAAAAAAAAAAAAAAAAAAAAAAAAAAAAAAAAAAAAAAAAAAAAAAAACyfKGlbhpfi2pmIj1LetT3e2G7csduWkjU6e0RHr176T72j17TaZ2DOlP2kO1D/j/ADZeFf3N6nPwy97TQ+WJifOJ8hyWtK0rWlUmoAKAAAACkeD002acGat/Ke63yPNSY7mTi5E8bIhet8UVk4RnGcK95t9bRasWjwlc0rLr9w09IjFNJrX2xzL5Ps7unsxfsdLtcptPnbhWW88rRy0y/tdlIAj/AOz26ezH+w+z26ezH+x6ekmmeO55VvVmSkAR/wDZ7dPZj/Yt+zu6f/q/dU9JNM8dzynVmSkIR99nd0//AF/un2e3T2Yv3T0k0zx3PKdWZKQRHv2e3T/9f7qn2f3X/wDV+6u9I9M8dzynVmSkMR59n919mL91T7YN19mL909I9M8dzyq9WZX+GkQR19sO6+zF+6tnqLdfZi/dPSLTvHc8qvVWV/hpHEaz1HuvsxfuvLL1RumKlr3+CitY5n1V0eUWny+Z5V3VOXL5bI9e799j9u+K4b8ajUerHE99a+c/0QXjqyG67lqt1119VqZ9a0RERHhWK+UPlrHDwysjfT2k40fT+h43NXjlxqqgw27ABUAAAFSfdHM+UR5ujOi9g+w21UjLWPjGefhMs+ceyvzQi/oHYY3LdfjWbHzp9Lxbvjutl8o+bxdBREN1p1jZjvJIJyo1HeXIYkPdDj/muAbVEQAAAAAAAAAAAAAAAAAAAAAAAAAAAAAAAAAAAAAAAAAAAAAAAAAAAAAAAAAAAAAAAAAAAAAAAAAAAAAAAAAAAAAAAAAAAAAAAAAGobxpPgc0Zax6uSe/3WYnlvWq09NRgvit4Wj9ktGvjvjval44tWeJcx5T6Z0bL6RCHsrv6kg07I3lrYlxRU5OVBFmxVFAFeTlQA5AFVJjl8ObTRHrVju84feLozlFVh/g4Pg4fdkxcetXw9jx4ZMZ7S18/wAHB8HD6ODg2h8/wcLZxw+jg4XbY+f4OFvwcPpmFkwbS5880hbNIfRMLJhXaXcz55pCyaQ+iYWzC7bV5nzzSGp9QauOY0tJ8O+/9IbLrtTXS6bLlt4xHqx7Z8kb5MlsuS2S882tPMy2+l2Nu5vJcMWz0/G257yvdefCoJC3wAKgAAAqPbBgzajPh0+GszlyZIpSsec2eKWPRtsHwmTJu+enq15pp+fOfxrf0e+PZlevQi1+p5scHDndr/6/qSV0/s+LZ9rwaSnEzWOb2/KvPjLOKnck0Y0jHZo5RcnK5cnOdeeUq89VQFy0AAAAAAAAAAAAAAAAAAAAAAAAAAAAAAAAAAAAAAAAAAAAAAAAAAAAAAAAAAAAAAAAAAAAAAAAAAAAAAAAAAAAAAAAAAAAAAAAABTua1vej7o1NY8O6/ye1srzyUrelqWjmJjiYlgajhW83EuWJ973fze1i9KzdjOiPR76nT20+a+K3hHfWfbHk8Icdv2J2L1y1PiglUJRnGko/FUB4rwAAAAAB4Xx+cPcXRrzD4+Dh7Wp5w85hftDz4Ul6cKTCu0q8VJh6TCkwrtL3jMLZh6zDzlXaVecw85h6yw28674npLdmeMl/Vp9b2swlduQhTik9LVuU5bNGrb/AK74xqfgaT6mKeO7zt5sCeM8z4yJtZsxs2YW6d1J7VuNq3CFAB6PUAAAFQCe6OQZHaNrzbruWm0OLmJyW9a0fi1r4z+x1FotHg0WkwabDWK48VIpWPdDQPR3sHxPQW3DPj4z6n7jmO+uPy/b4pKiEgwbG6tbUuKTmvKHUel5e7hX2Vr9S4BntAAAAAAAAAAAAAAAAAAAAAAAAAAAAAAAAAAAAAAAAAAAAAAAAAAAAAAAAAAAAAAAAAAAAAAAAAAAAAAAAAAAAAAAAAAAAAAAAAAAAAAAwm8aP4bB8LSOb4+/5Y84anzykWWk7npfi2pniPUv61Pd7YQPlbpnBm2ofkuf2l/ZudMyP3Mv6HwgII3QAAAAAAAA87V83otkHjMLJeto9jzXr3nKkr5WSvVWS85ekrZVXPG0xWJme6I75lGW7a6dbrLXifUr6tI9zaepNw+BwfFqW9fJ917qtCSXSMTZjv5d7gbnTsfmjvJKiireNsAAACoAA2TpXY53rd8WC1ZnBj9fNP8Alr5fPLW++ZiIiZmZ4iI85dHdG7D9h9opXLWI1GX180+yZ8K/NDNwbG+vdrhg0Wv6jTDw9iFfaz4G31rFaxWIiIiOIiPJeCROZ+8AAAAAAAAAAAAAAAAAAAAAAAAAAAAAAAAAAAAAAAAAAAAAAAAAAAAAAAAAAAAAAAAAAAAAAAAAAAAAAAAAAAAAAAAAAAAAAAAAAAAAAABRj9x0kanT2r+NHfWfe++Z8FXjkWLd+zO1c4ZU5l0JyhKMo/BHPf3xMcTHdMT5DYt12y1rTnwRzM/d19vvj3tci0TPHhMeMS5Fqel5Gn5E7cqdjuT8SUY+RC/b56e/40XAo1bJVAAAABaAoSpIqtlbKvKyVwtlZK+XnKr0WS+fUZsenw3y3nitI5l9EtF6n3Ht3jSUnur62T5fKGbh48sm/CLJxrMr1yEGtazVX1epyZr+Np7o9kex8wqm8YxhGkaJNGMYx2YgCqoAKgAAc8eLN7B0/uG/aqMWnpNcNZ/vc8x6tI93tn3PSFuU5bMXhkZNnHtzndnsxi2X0f7DG47nOszY+cGlmJrzHdbL5fs8f2J/7mK2na9LtWgw6PT14pjjjnzmfOZ98srwkeNYpZtUi5dqmdLOy53e73P5KgMhrgAAAAAAAAAAAAAAAAAAAAAAAAAAAAAAAAAAAAAAAAAAAAAAAAAAAAAAAAAAAAAAAAAAAAAAAAAAAAAAAAAAAAAAAAAAAAAAAAAAAAAAAAAFPJjdVtmk1U83pxb8qO6WSO94XsezkQ2LsKSj/FdCc4S2oS2Wr36etE/3epnj/NHLy+1/U/nFf3W28K8NRXk3o9Zc/RvuqyqahlU77UvsBqfzmv7p9gNT+c1/dbWLPRjR/kV81V3WWX46eVqn2v6n84r+6fa/qfziv7rbA9GNH+RXzVOsMrx/7NT+17U/nFf3T7XtT+cV/dbYK+jWkfIr5qnWGV4/9mo/a9qvzmv7p9ruq/Oa/utt7zvPRnSPkV81TrPL8f2tQ+1zVfnNf3VPtb1X51X91uAejOk/Ir5qq9Z5fj+1pv2tar85p+6t+1nVz/8A5VP3W6B6M6T8ivmqdZ5fj+1o2TpfWzW3Y1eOLcd0zWfFpWT0XbtkyWvfdsM2tPMz2J8U3fMcyy8bRdPxtvd2adp629az7XBc+1B/9lW6f9UwfuSr/ZXun/VMH7kpwGT0DG8D29INU+f9qD/7K90/6pg/ck/sr3T/AKpg/clOAdBxvAekGqfP+1B/9le6f9UwfuSf2V7p/wBUwfuSnAOg43gPSDVPn/ag/wDsr3T/AKpg/cldT0Va+fu92xxHuxzP9U3B0HG8CnpBqnz/ALUYbf6L9mwXrfV582pmO/szPZr/ALd/+6R9LpdPpcNcODFXHjrHFa1jiIfQPe3Zt2uCHM12RmZWTLavXqzVAerHAAAAAAAAAAAAAAAAAAAAAAAAAAAAAAAAAAAAAAAAAAAAAAAAAAAAAAAAAAAAAAAAAAAAAAAAAAAAAAAAAAAAAAAAAAAAAAAAAAAAAAAAAAAAAAAAAAAAAAAAAAAAAAAAAAAAAAAAAAAAAAAAAAAAAAAAAAAAAAAAAAAAAAAAAAAAAAAAAAAAAAAAAAAAAAAAAAAAAAAAAAAAAAAAAAAAAAAAAAAAAAAAAAAAAAAAAAAAAAAAAAAAAAAAAAAAAAAAAAAAAAAAAAAAAAAAAAAAAAAAAAAAAAAAAAAAAAAAAAAAAAAAAAAAAAAAAAAAAAAAAAAAAAAAAAAAAAAAAAAAAAAAAAAAAAAAAAAAAAAAAAAAAAAAAAAAAAAAAAAAAAAAAAAAAAAAAAAAAAAAAAAAAAAAAAAAAAAAAAAAAAAAAAAAAAAAAAAAAAAAAAAAAAAAAAAAAAAAAAAAAAAAAAAAAAAAAAAAAAB4Z8+HT4rZc2StKVjm1rTxEIz3n0kafFa+LbcHw1o7vhb91fmjxkEpjmzWdX9Rau0zfcctaz+Lj9SP9mInc9ztPM6/UzP6W31g6qHL2DqDe9PMTi3LU148vhJmP/6bjtXpH3PBMV12Kuop52jil4/pIJwGH2jfNt3fD8JpM0WmPuqT3Wr8sMwAAAAAAAAAAAAAAAAAAAAAAAIq6j653Ha941WixafDamLscWtzzParFv6vo6X611+8btXSZtPipWcV7c1559UEmgAAAAAAAAAAAC2ZiI5mYiPe+addo6zxOqwxPvvAPrHljzYskc0yVtHtrMS9QAAAAAAAAAAAAAAAAAAAAAAAAAAAAAAAAAAAAAAAAAAAAAAAAAAAAAAAAAAAAAAAAAAAAAAAAAAAAAAAAAAAAAAAAHwbjuGm27R5dVqL9nHjjmfbPuj3vvQB1z1Bbc9ynTYrf/j6a01jj8a3nP8AQGL6j6n129557dpppq2/u8MeEe+fbLXcePJkvXHjpa1rTxFaxzMvXSaTPrNTi0+Ck2yXtFa1j2uhOm+ltHsmCtuIyaq0f3mWfL3R7IBF+3ej3fNXSMmecemrPlfmbfshsuP0X4Ip/ebnebe2uOIj6UrgIX1fox11Im2l1+PJP5N6zWf2+s0Hctp3DbM3wer098dvKZjut8k+bqZ8Wu0Ol1+nvp9Tirkx3jvif6A5v6fx7tk3XT12y1q6jnutHhEefb9zpbBGaMOOM1q2yRWO3aI4iZ8+GI2Tp/b9lxXx6Wtpteeb3tPNp9kfIzwAAAAAAAAAAAAAAAAAAAAAAOdeufwp3H/6/wDx1fX6PPwkx/q+T+j5Oufwp3H/AOv/AMdX1+jz8JMf6vk/oCfwAAAAAAAAeWXNjxY75MlorWsc2tPhEAs1GpwabDfNnyVpjpHNrWniIhE+9+kfJM2xbViiIiePh8kc8/JH1tU6q6nz71qppS010mO0/BU/K/zT73zdP9MbhveX+6jsYKzxfLbwj3R7ZBjtbvO66+0zqtblye61u6Pm8GM5585l0LtnQ2w6GKzOCc+SPG+Wef2R4NorodHSvFdLiiPZFIByxh1OfBeL4c+Slo8JraYmG57R1/vOivWupv8AGsMeMX+6491vrTHrundl11Zrn0GKefOtezMfPCLOpOgsuix31O3WvmxR33x2770j2x7YBK2zb7t+86b4bSZOZjuvS3dak++GZnwc/wDQ22brqN1xarTXthw4p/vcnHdMfk8efLoCfAHNmv6i33HrtXSm56mta58kREXnujtSnHpPUZ9R09t+bPltkyXpM2vM8zPrS513L74679YyfzS6E6M/BjbP0c/zSDaAAAAAAAAAAAAAAAAAAQL1dvm8aXqLX4cG4Z8eOs07NK2mIj1Yb56Ptbq9btOpy6rUXzXjVTWLXnmYjs17kYdbfhRuX+qn/jhI3oz+8mq/XJ/lqCRwARL6RN13HQ63QU0usy4a2w3m0UtxzPKPPtk3/wD6rqv35br6T/vhtv6C/wDMw/Qu0bfuu4avFrMPwlaYItWO1McT2ojyBgvtk3//AKrqv35Vr1N1DW0TG66nn335Td9ovTH5j/8A3b63nfoPpm1Jr8TtXnzi9uY/3BHG1+kLedNesaya6rF+NzEVv80wmLaN50O76SNRpcnMfjVn7qk+yYQ31V0Xl2ek6rS3tl0vPFu191j9nPthr/T29Z9n3PFnpafg7TFc1fyq894OlNRMxgzTE8TFLTE/M5pjqTqDj766r9+XSea9L6TLekxNbYpmJjzjhyhHgDqLYsmTNs23ZMl5ve+nx2taZ5mZmPFl2F6c+8W1/quP6GaAAAAABS33M/ICo5b12u1sa3VRGrzREZsnERkt7Z96f+kb2v05tt72ta0455mZ5mfWkGygAx+5bjpdu0eTVam/Zx0j55n2R70H7v15vety2jTZZ0uH8WtPuvnszXpN197arR6GJ4pSnwtvfNu6Poa30f0/Te9wyVzzaNPir2snZnibeyAYX7N7x2u19ktV2vHn4W31p26M+yN9jw59dqb5b5pm9O3PMxXy+t9sdK9PRh+C+xmDs8cfc9/7WbxYseHHTHSIitKxWsR5RUHsAAAAAAAAAAAAAAAAAAAAAAAAAAAAAAAAAAAAADXup9ynbdj1mprPF+x2af6rdzmiZ5nmZ5lN/pMzzTaNLiie6+piZ/7YlCAJj9G+zRTT5tzyV9bJ/d4efKtfGf2pVYPpzTxp9i2vFEccaekz8to5n/eWcABh963rS7No41OoreaTetOKxzPNgZgR5/aVsX/J1X7kfWf2lbF/ydV+5H1gkMR5/aVsX/J1X7kfWf2lbF/ydV+5H1gkMYfZd60m86SdTpovFIvakxaOJ5q+HqXqPTbHo+3eIvmv3YsXP3U+2fcDO6nV6bS4py6jPTFSPG1piIahqev+ncEzWufJmmPyKTx+2UJbpvG4bpnnNq89rzz6tefVrHsiGPpS97dmlLWt7KxzIJ3wekXp/JMRec2P32pz9Da9Bu+27jSbaPV48sR4xWe+PljxcvXw5sf/ABMV6/6qzH8y/T6nUabLXLgzXx3rPMWrPEwDrER30d1jG5xGi1sxXVVj1b+EZI+tIgDwz58Onx2y5slaUrHM2tPEQxm+b3pdm0NtVn7554pSJ7729kOfN437cd4zzfU5rdjn1MVZ4rWPkBNOr696c08zWuptmmP+XWZj9r5MXpG2C08XjPSPbNOfoQRWtrW7NazafZEcy9L4M9I5yYclY9tqzAOmtu3zadyj/wDE1uPJbzrE8Wj5p72Ycl4suXDeuTHe1bVnmLVniYTF0d1tbV3poNxv/fT3Yss/j+6feCUgY7c9x0u26LLqtTfs46R88z5RHvB9uXJjxUtfJeK1rHM2meIhqOs666c01prGqnLaJ4n4Os2j9vgh3qDqfcN6z2nJe1NPE+phie6I9/tlrsRNpiKxMzPlEAnnT+kTp/Lbs5LZsXvtTmP9m3abctBqtNOpwarHkxRHM3i3dHy+xy5fT6ile1fDlrHttWYh9Oh3LW6C17afNasZKzS9fxbRaOO+AdF/bP0//wBU037zKaXV6bV4a5tPmrkx25iL1nmJ4couhegfwX0f6TL/ADyCKOufwp3H/wCv/wAdX1+jz8JMf6vk/o+Trn8Kdx/+v/x1fX6PPwkx/q+T+gJ/Hne9MdbXvaIrEczM+EQgnqrrTU7lmvptFktj0lZ47VZ4nL7593uBKe4dX9P6C80y62lrx40xx25j9jCV9JOwzbiaaiI/K7CCX1fEtbFO38Vzdn8rsTwDpHbeo9m3SezpdZS1/wDlz6tv2Szrkql70tF6WtS1Z5iazxMSmXorrDJrbV27X37Wfifgssz937p94JQAARh6R95nBo8O3Y7cXz+vk4n/AOOvl88pPc59b6ydV1Jru/1cUxij3dmPr5BjNg2jJu+6YNJWZisz2slo/FrXxdK6PR6fRabFp8FIrjx17NYhG3oy0Na6TW6y1fWvljHWfdWOZ/3lKYAAAAPDDgw6ekUw4q0pEzPZrERD3nwCfAHKe5ffHXfrGT+aXQnRn4MbZ+jn+aXPe5ffHXfrGT+aXQnRn4MbZ+jn+aQbQ88l6Y6Te9orWO+ZmeIhj923TS7Vosmq1NuK17oiPG0+UQ5+33qbc95z2nLltTDz6mGs8ViPf7ZBNmp6y6b09ppfcaWtHjFIm30PDF130zkmI+PTXnztS0f0QXoNl3XcO/S6LLkr+VFfV/b4Ps1fS2/6Ok5M23ZYrHjNY7XH7oOjdNrdJrMfwmm1FMtfbS0S+typodx12354zaXUZMV4n8WfH3THmnjpPqnFveGceSIpqscR26891o/KqDc2Ptum21mYtrtPExPExOSvd/uyDlXcvvjrv0+T6ZB1Liy4suOL4r1vWfC0TzE/O9WqdE/gzt3+ifpltYD4cu4aDDeaZdXhpaPGtrxEx8z7nPPXv4S6r/RT6AT7g1Om1FZnDnx5IieJmlotx+x9KMPRf97tw/Tx9CS73pjra97RFYjmZnwiAejXNd1XsGitNM24Yu3HjWvrzH7qKeqetdVuGS+m0OS+LS17ptWeLZff7o9zS9Jodbrcvwem0+TNf2VrMgn7D110zlt2fj3Z99qWiPobNp9VptVijLp81MtJ8LVmJhztk6P6kx4/hLbbkmOOeK8TP7K974du3Xddl1fawXyYrVn18VomIt7piwMn1t+FG5f6qf8AjhI3oz+8mq/XJ/lqirqLcsO6brm1uOs1jLWkzWfKaxETH+yVfRn95NV+uT/LUEjgAhf0n/fDbf0F/wCZ5+jH77a/9Vj+aHp6T/vhtv6C/wDM8/Rj99tf+qx/NAJsAB8eu0+LU6PU4MkRNcmK1Z5/zQ5Wy07GXLTnmK2mvPt7Muierd9wbTteavbj4xlxzTFSPH1u7tfJDnalMmS9aVibWvPER5zNgdGdOZr5+lNHkvPNp0sx+7zH9HN8eDqDQ6KNDsmHS+ePT9mePbx3/wC7l+PAHT/Tn3i2v9Vx/QzTC9OfeLa/1XH9DEdW9TU2TS1pjiLanLExjrPhX/NINi1u5aDQUjJqtTjxV8u1bjn5I82uZOvOmaW4+Ozb31paY+hAmr1mr12ecuozXzZbT4zPM/My2m6U6h1OOL49ty9me+JtHZ5/eBOWk6u6e1dopj3HFF58K35p/M2OJi0RMTExPhMOWddtO5bfeK6vSZMXPhNq90/JLY+mOr9btGemPNkvl0c91sczzNPfT6gdCsdbddr4mPj+m/i1+t9EZaZtN8LjtFqXx9qsx5xMOWsmn1Hwl/7nL91P4s+0DWzFtZqpiYmJzZJiY8++U9dJ7jt+Lp3bqZNZgreuKea2yViY758uXPcxxPE+L2rhz2iJriyTE+cVngHUuHX6LPf4PFqsOS3HPZreJn/ZbfcdvxXmmTWYKXr41tkrEx83KE/R9izU6jpN8WSsfAZO+1Zhi+r8Oe3Um5zXFkmJyxxMVmY8IBkfSFqMGffMdsOWmSvxekdqtotHPM+xl/Rtq9Np7bj8PqMePtRTjt2ivPj7UY2pkpPF62rPstHBTHlvz2KXtx+TEyDqX7LbX/1DTfxa/W+6totEWrMTExzEx5uT50+o4/4GX92XUW3TFds0c29WI0+Pnnu49WAZBg9f1Fsu3zNNTr8VLR+JE82/ZCLequudRqcmTSbbktjwVni2Ws8WyfJ7IR7g02q1mb4PDhy5slvKtZtMgn2OvumZt2fjdvl+Dtx9DN7fvuz7h3aXXYslvyYtxb9k96Bp6O6linwk7bk49kTHP7PFgMmLU6TP2clMmHLSfC0TW0A6wEO9I9cZoy49FumWb1vPGPPae+s+y/1piB8ufWaTT9mM2oxY5t4Re0V5/apg1mj1EzGDU4skx3zFLRbj9iJvSj/i9q/RZfpq1jpffq7Jj3LPFe3lvipTFWZ/G58Z90AnzW7joNDT4TVanHir/mtxz8kebCV606ZtbiNyx+PHM1tEfQgDU6rcNy1U5M18mfLb3TafmjyfRpNk3LUa3S6W+ly45y5Yp2rUmIiLeMg6Xrq9NbTxqYzUnDNe1GTtR2ePby8a7pttrRWuu09pmeIiMlZmf92B6n0+LS9Ja3BjjimPBStYj2VmEA7fnx6fX6XNkmezjy0tbj2VkHU2XNiw47ZMuStKVjmbWniI+dq2frjprDeazrotMTxM0rNo/bwh7fOoN06g1vYrGX4KbcYdPTmf2xXxlZ9p3UnwXwn2Nyccc8d3P7PEE5aHqnYdfeKYNfjm8+FLerM/tbC5Ny4c2ny2plx3x5Kz31tExMJJ6b67nR6DUYNwtfNbHTtYLTPfby7Mz/UEwanVabSYpy6jNTHSPG1p4hrGbrvpnFbs/Hu1760tMfQhLct13XfNZzltky2tPGPDWJmK+6Iq+r7TupZxfCfY3Jxxzx3c/s8QTloeqdh194pg1+Obz4Ut6sz+1sLk3Lhz6fLNMuO+PJWe+tomJhMPQPU+bV87brMk3y1r2sOSZ77Vr4xP+kEogAAAAAAAAAAAAAAAAAjH0m4pttmiyRHdXU8T/wB0T9SFXRvWegtruntZSle1fHEZKx/onv8A9uXOQOoNhyxl2Xbb18J02P6IZhHXo63aup2q2hvP95pp7o9tLTMwkUBH/pH/AAfr+s0/qkBZalbRxasTHsmOQclcT7JOJ9kusvi+D/k0/dg+L4P+TT92Acm8T7JHS3UmXTaHY9wzzjxxMYZrX1Y8berH0uaQTj6NJiuw6mZniI1d/wCWqLepd3vu276jUTPqVnsYo9la+H1pQ6Yx30fQmqzRHFr4tRlj9kxH0IQjwBsnTPT2bfNf8FEzTBj4tmv7I9ke+XQG27Rt22Ya4tJgrSsR3245tPvmWoejfS0xbHkzxHrZs9uZ91e6Ehg+fUabT6nHbFnxUyUtHE1tHMIS606RptfGt0VZ+LWni9JnnsTbw+ZOrEb7paavaNfgtHMXwX/bWOY+gHMmnz5dNnxZsVprkx2i1bR5TV07s+403PbNJrKxx8LTmY9k+E/7uXE5ej7UW+1jN/8AqzZez+yLf1BHvWu723He81a25w6f+7xx5er4z+1h9j2fUbxuGPS4vVie/JfypXzlibXm9rXnxtPM/wDcmL0X6asaTcdTx61stcfPurHP9QbztOwbZtOGtNLp6xPHrZJ77Wn2zLLZcWLNSaZKVtWfGsxzD1AQz1p0dh0eG247fTsYq/8AGxRPdX/NHu9yL62tS1b1mYtWeYmPKXVuqwU1Omz4LxExkpasxPvhyplp2MuWn5Npr+7IOkel91tuuy6TU2nnJEdjJ/qr3T9aL/SJu99TucaDHf8AudPEdqPbkt9UdzYPRhmtbR7jhnwplpaP+6J+pFO557ajcdbmtPNr57zP7QNs2/UblrsGkwRzfJbiJnwiPOZdDbJ0ztmz4a1w4a2y8evltHNrT/RHnox0uO+r3DU2jm2KlKVn2drnn6EzA88mOmSk0vStqz4xMcwh7rbpDT6TBbcdBj7GOs/32KPCO1+NCZXx67T01Oj1OC0c1yYr1mPlgHKboXoH8F9H+ky/zy59vXsWtT8mZh0F0D+C+j/SZf55BFHXP4U7j/8AX/46vr9Hn4SY/wBXyf0fJ1z+FO4//X/46vr9Hn4SY/1fJ/QG9+kPdsmk2rFpMduL6q0xaY/5dfH9vKDa1m1orWJm0zxER5pD9JWabb1p8U+GPTxMf90/+mobFm0uDd9Dm1Vuzhx5YveeOfue/wAPlBM3S3R2k2zBjz6rFXJrLRzM274x+6sf1brnzYMGK2TNkrSlY77WniIRJu3pLy2m2PbdNER5ZcvfPzV+tHOv3XcNxydvV6rJlnyi090fJHhANq601fTWrz0ybbzOo7U/C2rHGO0fX8jSMWXJiyUyY7TW9Ji1bR5TVmNs6c3jc5j4to72rP8A8k+rX9spK2n0a6XHFb7jqLZbeePH6tfnnxkG9bBuld12rS6uOOb14vEeVo8WZfHotDpNDhjBpcNMWOO+K1h9gDl7f5md73LtePxi/PPyuoXOHWmknTdSa+sxxGS0ZY+S0AlT0d9n7XKdn/n5Ofl7m9ov9Getrfb9ZpJtHax5u3Ee60fXCUAAAAACfAJ8Acp7l98dd+sZP5pdCdGfgxtn6Of5pc97l98dd+sZP5pdCdGd3TG2/o7fzSCLPSDvF9Zu86Stp+B0sdnj25POf6LOiemqbvqb6nU1502GYia8/wDEt7Pk9rUdwzTn1+ry2nmb5r2/3T/0Tpq6fpvQxEcTkiclvfNp+oG0YsWLDjrjx0rWlY4rWI4iIeoAjDrjpTT5tLl3LR4opnxx2s1a90ZK+c8e2ET7TuObbdw02rx2mJx3iZiPOvnH7HUd6UyVtS0RMWjiYnzhyrrsUYNZqsUeGPNkpH/bMwDqbT58eowYs2Oea3rFqz7rOXdy++Gt/T5P5pdB9GZZy9M7XafGMU1/dtNf6OfNy++Gt/T5P5pBP/RP4M7d/on6ZbW1Ton8Gdu/0T9MtrAc89e/hLqv9FPodDOeevfwl1X+in0A3f0X/e7cP08fQ9/SJu19LtuLRYr9m+pme3x/y6+P7ZeHov8AvduH6ePoar6Rs1r9QRjmfVx4KRH/AHd4NX2TaM277lg0eOez2u+9vya18ZdH7Ztei2zS102lxRSkeM+dp9sz5yjH0X6as5dy1Mx61Ypjif8AV3z9EJgAan1P0xpd60tpila6qlecWSO6efZPubYA5KvS1L2peJraszExPlKbvRn95NV+uT/LVHHWmmx6fqTX1pHFbzGTj32jmf8AflI/oz+8mq/XJ/lqCRwAQv6T/vhtv6C/8zRdo3rcNozZcujyVrbJXsWm1Yt3c8/jN69J/wB8Nt/QX/ma90f0/pd81upwanJlpXHh7cTSYieeez+NEg9f7QOpvznF/DhZk696mvWa/HKV58646xP0N/8A7Mtl/OtX+9T/AP5Vr6M9kiYmdTq7R7JtX6gQtqNTqdZnnLny3y5bz32tPMylXoro/Liy49y3DH2ZrEWwYp8Yn8qf6Q3ja+l9k2y0ZNNpK/CR4ZLz2rR+3wbGDw1P+Hz/AKO30OTY8HWWp/w+f9Hb6HJseAOn+nPvFtf6rj+hi9/6R23er/DZZyY88U7MZKT5eXMT3Mp0594tr/Vcf0Pm6h6i0Wx6WMmX181+fgsUT32n+kAwXTHRGPac+TU6q9M+aJ4w2iJ4rHt4nzb/AMxHnDnHdOsd+3G1u1qrYcc+GPFPZiPn8Wvc6zPPaj4XJPtjmwOp9VpdNrMF8Gox1yYrxxas+bmvqHavsRu+p0kTNqVmLUmfGa2jmHz4Ny3fQWi2PVanDMeEdqYj9llu57rq9zz11GqvFssUinaiOOYqCafR3rranYpxXnmdPmtSP9NvWj6W92iOzPdHgjH0Xf4Dcv1iv8qULfcz8gOU9f8A43V/p8n0y6G6OiPta2zuj/hT/NLnnX/43V/p8n0y6H6O/BrbP0U/zSDZeI9hxHshUBA/pJ/CCn6rT6ZZr0XRHa3P5Mf9WF9JP4QU/VafTLNei77vc/kx/wBQS7xHshoPpA3e+h2iumxW4yaq01mY8qR4/U39B/pMz2tu+kxT9zj0/aj/ALp/9A0nadsz7puGDR4eItknvmfCsV8ZdH7Rs2g2jS1waXFFY/GvP3V59syiz0Y6et9w1+eY5tTDFY93an/0moBgd82DQ7zpbYtRSIvET8Hlj7qk/V7meAcpa7RZ9Dq8+lzxxkx27NvrT50TvFtz2XH8LPOXBPwV59vEd0/sR36SdPTFvuHLWOJy6aJt75rMx9TJ+i/NaM+5YfxZx47/AD1mY/qC30o/4vav0WX6ao72rbs+57hp9Jh+6yW45n8WPOUielH/ABe1fosv01fB6NKUtvmovMd9NJMx/wB1qwCWto2Pb9o09cWlxRE8etee+1p9syzIA1jrH8Gdz/Rx9MObnSPWP4M7n+jj6Yc66WsX1WnpaOa2y0iY93IJ56M6dw7Xt+LUZKROqzVi1rT41rbwrDeFsRERER4RC4EbekbasWbbKa+lIjLhyRFrR50t7fn4Qg6P6yrFumdz58sUTH7Yc76asW1GCs+E5aRP7QTz0Z07g2vQY9TkpE6rPSLWtPjSLeFYbwtiIrWIjwiOIXAjb0jbThzbXXX1pEZcNora0edLd3H7eEVdO6q2l3zbs1Z47OekT8lu6f8AaU6da/g1uP8Aoj6Yc96KeNZppjx+Fp9IOrgjwAAAAAAAAAAAAAAAAAW2rFqzFo5iY4mHN3VWx32fdcuPs/3OWZvhtx3dnnw/7XSbAdQbDpt60FtPl4reO/Fk4+4t9QOe9m3fU7RuGLVYJ5mvdenPdevnEujdp3jRbtpKajTZImJ+6rz61J9kw5t3Ta9ZtmryabU45ras908d1o9sT5wbbumv2zURn0me2O/hPHfFo9kx5g6oET7d6TME1rTX6S9bed8XfE/NLY6dfdNWrFvjF68+U0nkG6rZmKxMzMREeMyj/U+kjYsVZ+Bx581vKIrFY/bMo637rXdN2rbDWYwae3jjrPfb5ZBlOuup6bjlroNJftafFbnJeJ7slvd7qtE0Wkza3V4NLirM3y5IrHH+bzfPETMxERMzPdEQm3oXpW230jcNXSI1GSv93SY78dbe33yDcM2248exZtBij1Y0lsVff6vDmCYms8THEx3TDrhzz1tsVts3a+SlZ+L6iZyUnjuifOoN49Gm4UybdqdFNo7eHL26xz41yf8AuEnOWNq3TVbXrceq09+zek98eVo84lNu1dfbJraVjUZJ02Xj1q3+5590g3prvVG4Y9BseuyzaItbHNKR7bW7ny63rTp7S45t8drlnypi9aZQ31N1Pqd91FZms48GP/h4uefnn3g1dPXQGjmnTEdru+HyZLfN9x/RC21bZqNz12HSYKzM3tETPHdWPOZdOaLSYtHpMGmxRxTFSK1j5AcsajDbT6jNhvExbHkmsxP+WUp+jHcMdfj+htaIta1cuOJnx7uJ/oxfpC2K+l3CdxxU/udRx25j8XJ/7aHo9XqNFqsWpwXmuTHbtVkHV4j3ZvSDtOrx0prZnTZuOLTaOaTPulmtV1j07psc3ncMd/ZXH60yDK7tr8W37dqtXeYiMeOZj3z5R+1y5e03ta8+NpmZ/wC5uPVXVufe71w46WxaWk8xWZ77z7Z+pquj0mfWarDp8FJtkyWitYgEx+jLSzTbNZqZjiMuaKx74pH/ALRTvmkto931+ntHE0z34+S08xLozZttx7Ztml0dJifg68Wt7beMz+1GvpH2K/wlN1xV5rMRjzREeE+V/wCgMf6NtxxYNz1OlvMROopHY99qczx+xODk3BnzafNizYrzTJjtFq2jxiapo2L0hbfqMVMW4zODNEcTk45pb393gCSmL3jXYtDtms1V7REY8czHf4z4RH7WN1HV/TmDHN7bjitx+LT1pn5kRdV9XZN7tXBhrbFpazzFbeN59s/UDTJmbWm0+MzzLoPoH8F9H+ky/wA8uenQvQP4L6P9Jl/nkEUdc/hTuP8A9f8A46vr9Hn4SY/1fJ/R8nXP4U7j/wDX/wCOr6/R5+EmP9Xyf0Bk/SbpbU3LRanj1cmGac++s/8AtGborrHZJ3fZ70xxzmwz8Ji9/Ed9fnhzvas1tNbRMTE8TE+QN12joLeNwrXJm7OmxWjmJv32mPdEJN2nobY9v4vfF8Zyx+PliJiPkjwaP0p1zXQYK6LcYvbFXux5KxzNY9kx7Ek06s6dtj7cbnh445754n9gNgrWtKxWtYiI7oiI4iFa2raPVmJiJ47pRbv/AKQ9JTDfBtXavlt3fDTHFa++PbKPdm6n3Tac83xZpyUvbtZMV55rafb7p94Olhjdp3Cdx2/T6qdPfD8JXnsX8YZIBFPpJ2e2TDg3PHHM4+MeXiPxbeE/tSs+fU6bDqcGTBmpFseSvZtWfOAc39M71bZt2w6meZxT6mWsedbfV4ukdPqMOpwY82G9b471i1bR4TDnLqXpzU7JrZpaJtgvMzhycd0x7J976+murtZslvgrRObSzPM45nvr76SDoka5tfVOy7nSJw6ulbz448kxW8fN5tgjJS0cxeJj3SC8Y/V7nt+jpNtTq8WOI/KtHP7EZb/6RKzS+n2mLRae6c9o8P8ATH9ZBKGPX6LJqsulpnpbNjiJvjie+sWfbPg5Z27Wbli3HDn0mTJOqnJ6sx3zabeU+3tOm9LbUW0uK2ppWuWaROSsTzET5g5e3L74679YyfzS6E6M/BjbP0c/zS573L74679YyfzS6E6M/BjbP0c/zSDn/ddPbTbnrsNo4mme8cfOnToTV01XTumrEx2sEzitHs7Ph/tLRfSLslsGuruWKn91m4rk48sn/uGv9K9SX2TWT24tbTZuIy0jxj2Wj3wDo4Y/Qbnodww1zaXPTJS0c9098fLHk+vJlx4qTfJetax4zM8RALc+fHp8OTNktFaUrNrTPlEOVdXm+H1Wozf8zLe/708pL606yw6vDk27QX7WO3dmyx4W/wAse73tH6f2nJu26afTVrPY7UWy28q0r4gnnpDBbB03tmO0TE/A9rif80zb+rnrco43LXRPj8YyfzS6mx0rjpWlI4rWIiI9kOb+rtDOh6h19Jjit8nwtffGTv8Ap5BM/Q94v0zoOPKLxPy9qW2oZ9H3Umm0tL7bqssUi2Tt4b2niObeMTKZItFoiYmJifCYBc5y62z48/Umvms8xSYpz76x3pi6j6n0ey6W3r1vqbRxjxRPM8+2fZDnXLlyZcl8mS02te02tM+c2BM3ov8AvduH6ePoav6SdPbHvmLNMerlwRxP+nubR6L/AL3bh+nj6GV682XJuW0xmw15y6WZyREeNq8d8f1Bqfox1lK6rX6S08TkpXJWJ8+z3T9KZnKm27hqNt1uDV6e3GTHPMeyY84l0PsfUu27zhi2LLFMv42K0xFon3e2AbILZmIjmZiIjzlHvVfWel0ODLpdHlrk1V44m1Z5rji3nz7fcCL+rtbTW9Q6/LSeaxfsVn2/Bxwk30Z/eTVfrk/y1QdM8zMz3ynH0Z/eTVfrk/y1BI4AIX9J/wB8Nt/QX/mefox++2v/AFWP5oenpP8Avhtv6C/8zz9GP321/wCqx/NAJsAAAB4an/D5/wBHb6HJseDrLU/4fP8Ao7fQ5NjwB0/0594tr/Vcf0ID6r3DJr9+117WmaY8tseOOfCtO5PnTn3i2v8AVcf0OeeoNNfTb3uWK0TExqLz8sWnmPpBufQ3Smm3DHO4a2vbxVvNMeKfC018Zn3JlwabT4KxXDhpjrHhFaxH0Iz9Hu/6OND9jc2SuPNS8zj5niLxbyj3pT5jjnkHzajRaTU0mufTY8kT4xasS556w0Wg0W+6jT6KkUx1rSZrE8xFrRzMQl7qPq/b9ow2pjvXNqpiYrjrMT2Z9t/Y5/1GozanPlz5bzbJktNrWnzkEw+i7/Abl+sV/lShb7mfkRf6Lv8AAbl+sV/lSjPeDlLX/wCN1f6fJ9Muh+jvwa2z9FP80oA3nBbT7tuGK0cTTUZPpTH0FvWkzbNh0ds1a5sEzXsWtxNq2nmJj2+IJCHhXPgvecdctLWiOZrFomYj5HuCB/ST+EFP1Wn0yzXou+73P5Mf9WF9JP4QU/VafTLNei77vc/kx/1BLyE/Sdpppueh1HHdkwTTn31n/wBpsaZ1tstt02e0445zaeZyUj2xx3x+wGh+jTWUxbrqtNaeJzYea++cc/VKb3KGi1mo0WrxajBea5Mdu1WXQmwdV7bvGGvGSuLURHr4bTxPPu9sA2sU5jjnlpvUfV+g2nDemLJXNqpjiuOsxMVn239gI39ImsrqN+jFW0TGDDWk8e23fP0wznov089rctTMerEUxxPt8Zn+iLcuXPqdRfJkm18uW3Mz52mzorpTZvsRs+DBb/i3/vMv+q0eHzA0L0o/4vav0WX6avj9GP361v6nP81X2elH/F7V+iy/TV8fox+/Wt/U5/mqCcAAax1j+DO5/o4+mHPGi/xum/TU+mHQ/WP4M7n+jj6Yc8aL/G6b9NT6YB1cADWusfwZ3X9D/WHOmk/xen/S0+mHRfWP4M7r+h/rDnTSf4vT/pafTAOsAAar1r+DW4/6I+mHPOj/AMZp/wBLT6XQ3Wv4Nbj/AKI+mHPOj/xmn/S0+kHWEeAR4AAAAAAAAAAAAAAAAAAAMRu2y7fu+n+A1eLtRHfW0d1qz7YlD+8ej3ddJe19D/8AlYfKOYi8fN5/MncBybn0+fT3mmbFelo8rV4eLrHLp8GavZy4qXj2WrEsdbp/Y7zzba9JM/oq/UDl+O/wZ7bemt63KY+L6O/Z88l/VrHzy6KxbXtuDvw6HT459tcdY/oyAND6c6I0O1WpqM9vh9VHfEzHq0n/ACx/VvgAMbue2aPc9Jk0uqx9rHaPnifbE+1kgHPm+9Ebrttr5MNJ1Gmjvi9fuqx74aZMTWZiYmJjxiXWzH6ja9u1M859HgyT7bY4mQcrs/tHTO77tePi+nmMfPflv6tY+v5nQmHZdnwWi2LbtNW0ecY68snEREcRERHsgGt9O9NaLY9PNcfr5rxHwuWfGfdHshswA+XWaPT63TZNPqMcXxXji1ZQfv8A0FuWhvfLoq21Gn754j7uke+PP5k9AOSbVtS01vWa2jxiY4la6r1O36HU/wCI0mHL/rpFvpfNi2LZsU8023S1n2xirz9AOddq2Ddd1yRXS6W1o88k91Y+WZTh0v0npdjx/CWn4TVXji+Tjur7q+5t1a1pWIrWIiPKFwDxzYcWbHfHkpFqWji1Z8Jh7Pm1Or0ulxTk1GemKkeNrTEQCGeo+gNVpb3z7ZW2bDPMzi59enye2Ec5MeTHaaZK2paPGLRxMOjND1dsuv3H4jps83vMTNbccVtNfKOWc1G36HVf4jSYcv8ArpFvpByo2vaOktx12DNqsmO2HTYsV79u0cTfsxzxEf1Tzg2baNPMWw7fpqTHhaMdef2sf1VraaLYNfktMRNsU46R7Zv3QDmt0L0D+C+j/SZf55c9Oj+jcE6fprbqWji1qTeY/wBUzIIk620mrydTbhemny2rPwfFq1mYn+7h9nQGl1OLqOlsmDLSvwGTvmsxHkngARv1V0Pj3G99ZoJimpt33xzPFcn1SkgByrrdu12gyzi1WnyYrR5Wjun53wus8uHFmpNMmOt6+y0cwxk9P7Ha3ana9Jz+ir9QOZtPptRqckY8GK+S9p4itY5lKnTPo/vGSmq3asR2Z5rp4nnn/XP9Eq4NLpsFezhwY8ceylYr9D6AUiIiOIjiIVAAAHxa3QaXX6bJp9TirfHeOJrP0x7JQ9vXo612C1sm22+HxePwdpiL1/pKbgHJ2o0up02SaajBfHaO6YtXhSuoz0jiubJWPZFph1ZlwYc1ezlxVvHstWJY23T+yWt2rbZpZn9FX6gcw+te3na0/PMtm2no/fNzmtqaacWKf/ly+rH7PGXQODbdv08f3GjwY/8ATSI+h94NT6d6S2/Za/CV5y6iY4tltHh7ojybZPgAOXdx0WtncNbMaXNMTqMnExSfyp9yfOj6Xp01ttL1tW0Y55i0cTHrS2YB8us0en1umyafUY4vivHFqygzqDobcdvvfLo6W1Gm8YmPu6R748/lhPoDkumTNgvM0vfHaO6eJmsvTNq9Tn7suoyXj2WtMuodRtm3amec+jwZJ9tqRLxw7Js+C0Tj27TVmPCYx15+gHPmz9M7vu94jT6ea4+fWzX7qx9fzJ26f6e0ex6T4LDzbJficuSfG0/0hsERERxEcRHlC4BpXV/S1d709cuCYrqsUcUmZ4i0fky3UByjrNFqtFmth1OC+O9Z4mswY9drcdOxTVZa18OzW8xDqbPptPqKdnPgx5K+y9YtH+74abDstL9um2aWtvbGKv1AgDZemt13vPE48dq4ufXzX8I+uX3dV7F9j90ppdHp8tsVNNj9aKzPat38zM183QtaxWIiIiIjwiFwI09GuHNi2/XxlxXpM544i0THPd70lgCIuqug8t8t9ZtVIntTzfBzx3+2n1IqyY8+nyzXJS+PJWfCY4mHWT5NRodHqY41GmxZY/z1i30g5cvrtbenYvqs1q/kzeZhn9h6S3TeMlbVxzi0/PrZbRxHHujzlPWHZdnwW7WLbtNW3tjHXllIiIjiI4Bzt1Vss6LeL6fR6XLOGmLHFZiszzPHfPPtSN6N8WXFs2qrkx3pM6uZiLVmJ+5r7UiAAAIc9Jen1GXX7dOLDkvEYL8zWszx3+55+jXT6jFumvnJhyUidNERNqzH40e1M4AAAADwz9+nzRH5FvocsRoddx/hM37lvqdXAMN0/W1dj2ytomJjS44mJjiY7mr9ZdITu0Rq9JxGrpXiazPEXj60ggOT9VpNTpM1sWow3x5K+NbRxK74/rex2Pjebs/k9ueHUufS6bUV7OfBiyR7L1i30vhpsOy0v267Zpa29sYq/UDn7ZOm903nPFcGKa4uY7eW3dWsf1lkeq9h+x24YtNpNPltjpp6c3isz2rd/Mzw6FrWtaxFYiIjwiI4XAjL0aYc2LQbjGTFekzqImItExz6vvSaAIw616Oz6/N9kNvpFs0xxmx88dvs+Ex70OZtPn095pmxXpaJ74tXiXWTyvix3+7pWfljkHPHRWvzaLf9NatbWpln4LJxWZ7refzTw6MeVMWLH9xjrX/TEQ9QQb6RNNqMu/Y7Y8GW8fFaRzFZmPGWZ9GeDPituXwmLJTmMfHarMc+PtSyAAAi3qroOdVkya3bIiMtp5yYZniLT7a+yUQ6nSarR5px6jDkxXrPhaOJdYPnz6fT569nNhpkr7LViY/3By1Ov1007E6vNNfye3PH0q6PQa3XZoxabT5Mt5nwiP6ulI6f2OLdqNr0nP6Kv1MjiwYcNIpixVpWPKsREAj7pToeu23prddxfU1+4xxPNcfv98pIAEQekzT58uq2yceHJeIxZOezWZ4749j5PRtptRi3jV2yYclInSTETasx+NX2pqAAAa11dS1+nNxrStrTOOOIrHMz3w5/0ei1sazTTOlzREZqfiT7Y9zqUAABrXV9LX6b3OlK2tacPdERzM98OftLotbGq08zpc3/ABafiT7fkdTAAANX6xpe/Te4VpW1rTSOIrHMz3wgLSaLWxq9PM6XNERlp+JPt+R1KAR4AAAAAAAAAAAAAAAAAAAAAAAAAAAAAAAAAAAAAAAAAAIn9I2y6nLTFuWK170xxFMuPmZiseVuPpSw88mPHkpbHesWraOJrPhMA5RwZ82nzUzYr2rkx2i1bVniYlL2zekjS3xVx7njvTJWOJyUjmtvfMeTHdR+j3NS99RtMRak984Jnvr/AKfbHuRtqdHrNLeaajT5Mdo8rVmATrqPSD05ipNqZsmW3lWlJ/8A9uEU9S9UarfM1Yms4tPT7jF2ue/2z7ZaxFZmeIiZn3Q2Pauk973K8Rj0tseOfHJlia1j6wfDsW1Zt13PT6WkTxa0Tktx3VrXxl03ixY8OKmPHHFKVitYjyirA9PdN6LY9NNMXN8t4j4XLPjafd7IbIAAAAAAAAAAAAAAAAAAAAAAAAAAAAAAAAAAAAAAAAAAAAAAAAAAAAAAAAAAAAAAAAAAAAAAAAAAAAAAAAAAAAAAAAAAAAAAAAAAAAAAAAAAAAAAAAAAAAAAAAAAAAAAAAAAAAAsvSl44vWto9kxyvAeFNPp8c80w0rPtrWIe4AAAAAAAAAAAAAAAAAAAAAAAAAAAAAAAAAAAAAAAAAAAAAAAAAAAAAAAAAAAAAAAAAAAAAAAAAAAAAAAAAAAAAAAAAAAAAAA//Z;" vertex="1" parent="1">
          <mxGeometry x="325.5" y="83.22999999999999" width="149" height="86.77" as="geometry" />
        </mxCell>
        <mxCell id="nF6jmrL_8FKUZvZka1Eo-32" value="" style="shape=image;verticalLabelPosition=bottom;labelBackgroundColor=default;verticalAlign=top;aspect=fixed;imageAspect=0;image=data:image/png,iVBORw0KGgoAAAANSUhEUgAAAOEAAADhCAMAAAAJbSJIAAAAkFBMVEX1fTn////1din7y7j1ezX1eTH1ezT1dij1eC/0cyH2j1X1dyz+6+L//fz6w6r0ch771MH4pHz2k13/+fb2ik382Mf+9e/7zbb94tX95tv83M3+7+f3kFj2h0n1gT/3mGb6vaD4qYP5sIz5tpX3mmr6ybH3nnH4rIr4p376xaz5tJL0agD5sIj2hkz6vZz5s5UTuHIGAAANhUlEQVR4nO2dC5eiPBKGgQkERBoEpVEB8W47087//3ebgAQCiQTb3tn05j179jtjo+QhSVWlckHTf7q0f12Ab5cilF+KUH4pQvmlCOUXh9BbBr/kUrD0xAmjY+g70JBL0PHDYyRE6BXAsDQZZRlW0a/IHuFyYoB/XdSnBYzJcogwgPLyYQEYPCYM/H9dxC/LDx4RLuG/Lt8LBJd8Qm8idxOtBOYel7Aw/nXpXiKj4BFG2k+oQlSJWsQhPP6EXogFjxzCUE5H35cVsgk9+T1FLd9jEibOvy7Yy+QkTMLgp3RD1BEDJuGvn+ErsIxfilB2KUL5pQjllyKUX4pQfilC+aUI5ZcilF+KUH4pQvmlCOWXIpRfilB+KUL5pQjllyKUX4pQfilC+aUI5ZcilF+KUH4pQvmlCOWXIpRfilB+KUL5pQjl1xcJzVoP/95sErPAXdRVruvatm2yZNvoj4YBXfp3Ab6e+sSyOFvRvkaYbWelLls2onnZXmaXc0huHs6zPM+yeZi3rzp+FPvrbre93H+uFPrXdru77m/F23uwKmwKMEWX71q/AbTZZcMuw1OEdYHBvL4+Yu+TcqotnOf63lCPSnn6obVzzIj1QdEFqvbB7Bpqq9gXV/ZjfoLQ0uZ3RJDXu6bW7H1ScFH+9VTf2ic32LQIoQDhG9VM3fK+zT5ea3b6SG8Fs52OJ3QPQU2oWTXhkkNY7Tna1NcTQi9slQayDgd4RGjvqg/JFkLzT/geTApmGUYTwv2x2V7q1oScvW5Gtb0xJYT19dQuY2MYUP9oE9bb0T7qUoL09if78/aKVgr84OY2hXPqEq/Ye93cjxKH1Llf11Y0b7eoX6gPzQ6bMJ18zj+vdRnOn/N5moabw2x7fTu3Sm+l9yti0tTNw21/y1/QSq18uW2zkDpZcAjLfcYeubVf97iIKo3hIldhgdKVuLO6DCcb/xt9jHyG264eg2x8vZCPLdMy2e5iFKGVTbfUH0idBOwncickzdpZ10+f/byRzFNdhgNno25r87LIRtAxhFYe7+jPSZ28swntfUlInrQz7bWv3k0I4YbzEGo7g5UN7zgfQQi0uOg0xkHCv2WTJN9y6iMO1rwgSLMOdRl4m639dVPO43BkIk4IrPWq69dJq+PcyT6XhKQtkT25a5d5PSbcDBA2jwD/NBisRHFCuIh6od8Qobkti0EeDFzVhNx9xoAQpuzCl0+pbu3tuOarhMa+CU2au9V3+mDXiVkaxphByDURzf559sEc1d+zunssuY1hLKE10YN+qcQI1w3h4n799GnCMkxKfOIwNkNHI4gSumuPYbcI4RuH8ERXGNk5zonyhgmrw0pObu30h/fVCxIaN/2D8VNihE2FGTUh35ENELpv+JFZAJJzBLiedRQhyCOdNcIcIqzs3pJByH3yjwmBib194bacYjHQE8UIjQ92axAjTPqtlBPHDhKWIQQ+WQZYJMQdaKZChEDz2DHUEGFl+psKI4ScOBZ/hfQwFmEZYrzjLxvv9XUDDkOI0L5ywiwxwlWfkG8fHhJWtrkcl4BJfd30cSUKEaJgix2WPU/IjbYeEpZR373R+8Tr9/30WEKQtccpYwirTrXoE74/VYeVab4DNbZm9TA4FSFEjdRjh1BihMGrWqmBQ6I6aG8Noh4eSyZCiGw8Z7QjSEh+7GuE1dh+X9+qsTUPRxgihCi+5sQgYoTvfULOaEtrW5AeYfntJjvQjEJ0+0ElChBid8955t9BSHKwXUKQl99sStIcqPfI64sQph6vHYgRHl9Th1V6JvMhNKCB/gd9YmvirxHiwIRDMDS2eCUhKJOzXrJaBME7UhCsmkMRH3h9AUJsoznNgBBy6rjyhw3+Vwjp8wE7mvIrUYRwNkzIKXGVVmoaABkfjicE2sPcP9/rC9bhUD/kWKIqyhpHyLE07QwbQwn3BwX7IWcsQAg5kXSVa/tLOgnJYoyvQ7tMCV3SdDKvNUnDEzlQL+WN9QVtKSdzRHJnHH9ZjldbLYiMWx8Qsj2+eSlvAwEly6kbhb7gjakF/SHnvFbS6jiDNKessyb9QZ4IP/LmjA+rOPvcNZlNhpybHBaMafQt0xxXdaS3J1/aAlZpHZqnSzLC/KitiVTahNVQOu7nGQySHuadRypCiGuKnXZoHvieZWzd0jq0+vBQv9XatdImrCr/rV/z7r6+3OMkbITGFvhXmJWkObUJjxnJ57uBb3ljQsjPYlRJ5A7hvWIZDRFYpMycc4GFxofYvLH9hUvc8LHf0/2yl7Yn0kiOnE/YeIXWNHEVKTATdM3RljH7YGChMX6ZHWHOELT8cOHTF5hOde92sEBmcvjZxOaZNfMWdw8yY3l10Jwxyw7dhAhLg8JIeSPZZEJTX80hmaQEJtxULZJKu5P5xqVPDL6FV824hKYhbGbXqpFgzFlNQrIZbJcmlmsrn+GBeQfYhIteMMvL9yhAJ5/dfXtM9R0yZzzVMqTSaR9OeBZ7ViNWE+NYp/qj+5IPTlzV2Bp2JQvmS7EpW7NXHcF2RBytF+/HYzCt6yrOqJs2q02qZTVI93/v6uuakTspr1H5JM4MBchIXDNlreoRI6xMOCd9ZJy4MXHQeSg+78Im00WCiKZbVSs+uFOOzTeY8bfgvIVbuuorJ762C+aKmOnJ6dS6CCGZkKhNlHsr/8lwhvfbN3ENy2sLEt5/5cR5jka+SzqQcXBye08Uoj94UbyeTqdLJPSfdRxHuIqudYUhh+J5EW69JHatfpk/jdZaU3XqXyQ6u1aFuF7IGUsDG+aHIkjWqLhevAyKjQYZLQakn1me47UhdikTt+I8zz4nxCCByWdWru77rGOMPETDiUnI48Nf2YRhmqZhuGHEJaKEoOoMXEQcXbiG4/hIjgNdzlpIxtLL7nLMZuTw4EvdW1tW6XhYdxWe5bbL4YvubQanlbnlYJWTXfjuJ/U1oPMh43E1/3/XiJUKlRn3Zk8eZg6w85t32+4EK+9cam7oTwDynbjQ+bz9Ifoiar3Ul7N0YuHLqVVz4qtN3PvQZ9+1kGJC4/tpoEfULN3dl107y33TZk1e/VVcIHvfjnEru+y1jQueAkcW2I12rR8ctWLoHjcH9sPJHh7hQi9+X+koDkcrmg87BhC1lsjqfBXneswdNbkAf2/15DcVDRuFHmnGnppvG7XqK7t7hGn4xEJ3NAi4+Rd9RREiT5C5nZw8yOI1PZrHDwcTbunQ1D53I3hgxmgEEIXP9UMkM70jejd/9PsvjEA/btbJJ4VjRfru/Jee2HKLxYX23YjwVhKuKUveJ9TsLXLEdMpm3OpLc1471+nol10hwmUQBfMu4Wq1PHWyapvfnk4tIl6UOQRESBlyBqHmL7urM0auoDVzMlb50Mb5DdRK97//dNbsIcLMoV+cZc7092NM5aqQpcH90N7T4yNE2MvxoQF0J3Qbuwra0uqUpx7vWGELnxA1NZiiu7R4cD+cW7RP86dvp9O5tSi1HG/glucs6AQWoukRmttucnj0Om/Qmj+YnnxxRkz4+01Purb0kE/aY0iw0W3ThNN2bgAnvELfSTsLQuxrf/WYve8udXtiNwLcxC1G+9HsJPW1lbdeegHVSZDZxHE35b4CXFHu3otbVsU9TPX1Mp7RZbf3Xo/QLbwl/dSf2VFiaq0Xm0x3lqDNsQxLg91rLdd1abMMzOpzur86edqLh1AQ0rfovc+e2zMD24Pe+C1zngkBxulx7P1AT+57Mu03vaVkZhucpfJPCvCW3o/W0zu7jIx6814UnDT4qkLh0eZpz85Bj9bze9eAEy7ajCiY2OYOo2eME6KD6TVJiqFVlaL6yu48y0g7b1CMkgJZdd7wd0AAmIbjT/4Gkb4+a+6rGv3X9h9aMH/rJtq85O2Qm9A1xU0D6nQudLX55Zjg0dRi80rL9dVdssCA21X/pa3TxW0W5hAarmlxSav9PtCxs3B2C5bVo5oWufPSt9q9YB+wCef73ltby465Xh1v28Mkd33HcaplMOVCGOjghI6Vhaft/iNYrkmaLn7fuC9rnq8jxF7WzfaJzpPnRetlsgrqdTDBKlmu4ybf3eBZ3/D24Vft5Qa2486Oa87bogeFTNTE/56XK79ytzoyhfPLx1JgzyulOClOyM28uHESvXg/PkBGMQ+3x9W6T8KE+/UHGST3tfEQrW84cQCZSAMVOjtcj0HCbrdenAQfu41mG4b5nPMU1/edqQAsVH5kM918Hh5Ol+35/Pfv+bw9HcLM8n3HcO1nY+lx+i+cGnGf5y2nKkzzgX/8HqlzMeSXIpRfilB+KUL5pQjllyKUX4pQfilC+aUI5ZcilF+KUH4pQvmlCOWXIpRfilB+KUL5pQjllyKUX4pQfilC+aUI5ZcilF//t4SD54DLIxgwCUVejSGJnIRJ6LHf3ySjfI9JyH19hnRqDlzrEPLOd5NO8MghjNhHg0mn1onRHULe+W6yiT7XlSLknAUpmarXYbAJW+9tk1iQ3nJGE+qB/B7D7+wA7RCiwEbuhgpgB7BHqC9HH+/xPyRgTHq7InuEuld8x47A/4ZQuYv+lqs+IfKLx9Avz0KUSdDxwyPrkDwWIa7IJPgll4KEs9OTQ/iDpAjllyKUX4pQfilC+fXzCf8D+XjlA3fxAjIAAAAASUVORK5CYII=;" vertex="1" parent="1">
          <mxGeometry x="107.5" y="71.76999999999998" width="105" height="105" as="geometry" />
        </mxCell>
        <mxCell id="nF6jmrL_8FKUZvZka1Eo-46" style="edgeStyle=orthogonalEdgeStyle;rounded=0;orthogonalLoop=1;jettySize=auto;html=1;exitX=1;exitY=0.5;exitDx=0;exitDy=0;entryX=0;entryY=0.5;entryDx=0;entryDy=0;" edge="1" parent="1" source="nF6jmrL_8FKUZvZka1Eo-33" target="nF6jmrL_8FKUZvZka1Eo-15">
          <mxGeometry relative="1" as="geometry" />
        </mxCell>
        <mxCell id="nF6jmrL_8FKUZvZka1Eo-33" value="Data Procesing" style="rounded=0;whiteSpace=wrap;html=1;fillColor=#FF66FF;" vertex="1" parent="1">
          <mxGeometry x="80" y="520" width="160" height="40" as="geometry" />
        </mxCell>
        <mxCell id="nF6jmrL_8FKUZvZka1Eo-34" value="Artificial Intelligence" style="rounded=0;whiteSpace=wrap;html=1;fillColor=#FFE6CC;" vertex="1" parent="1">
          <mxGeometry x="320" y="560" width="160" height="40" as="geometry" />
        </mxCell>
        <mxCell id="nF6jmrL_8FKUZvZka1Eo-48" style="edgeStyle=orthogonalEdgeStyle;rounded=0;orthogonalLoop=1;jettySize=auto;html=1;exitX=1;exitY=0.5;exitDx=0;exitDy=0;entryX=0;entryY=0.5;entryDx=0;entryDy=0;" edge="1" parent="1" source="nF6jmrL_8FKUZvZka1Eo-44" target="nF6jmrL_8FKUZvZka1Eo-13">
          <mxGeometry relative="1" as="geometry" />
        </mxCell>
        <mxCell id="nF6jmrL_8FKUZvZka1Eo-44" value="Marketing" style="rounded=0;whiteSpace=wrap;html=1;fillColor=#FFCCFF;" vertex="1" parent="1">
          <mxGeometry x="80" y="400" width="160" height="40" as="geometry" />
        </mxCell>
        <mxCell id="nF6jmrL_8FKUZvZka1Eo-47" style="edgeStyle=orthogonalEdgeStyle;rounded=0;orthogonalLoop=1;jettySize=auto;html=1;exitX=1;exitY=0.5;exitDx=0;exitDy=0;entryX=0;entryY=0.5;entryDx=0;entryDy=0;" edge="1" parent="1" source="nF6jmrL_8FKUZvZka1Eo-45" target="nF6jmrL_8FKUZvZka1Eo-14">
          <mxGeometry relative="1" as="geometry" />
        </mxCell>
        <mxCell id="nF6jmrL_8FKUZvZka1Eo-45" value="Merchandising" style="rounded=0;whiteSpace=wrap;html=1;fillColor=#FF66FF;" vertex="1" parent="1">
          <mxGeometry x="80" y="440" width="160" height="40" as="geometry" />
        </mxCell>
      </root>
    </mxGraphModel>
  </diagram>
  <diagram id="W4Wgl951g9OFkmSqTHmk" name="Infrastructure Resiliency">
    <mxGraphModel dx="1914" dy="966" grid="1" gridSize="10" guides="1" tooltips="1" connect="1" arrows="1" fold="1" page="1" pageScale="1" pageWidth="850" pageHeight="1100" math="0" shadow="0">
      <root>
        <mxCell id="0" />
        <mxCell id="1" parent="0" />
        <mxCell id="lhGTcvj3qofk5hR5HP2g-15" style="edgeStyle=orthogonalEdgeStyle;rounded=0;orthogonalLoop=1;jettySize=auto;html=1;exitX=0;exitY=0.5;exitDx=0;exitDy=0;entryX=0;entryY=0.5;entryDx=0;entryDy=0;endArrow=none;endFill=0;" edge="1" parent="1" source="lhGTcvj3qofk5hR5HP2g-1" target="lhGTcvj3qofk5hR5HP2g-3">
          <mxGeometry relative="1" as="geometry" />
        </mxCell>
        <mxCell id="lhGTcvj3qofk5hR5HP2g-16" style="edgeStyle=orthogonalEdgeStyle;rounded=0;orthogonalLoop=1;jettySize=auto;html=1;exitX=0;exitY=0.5;exitDx=0;exitDy=0;entryX=0;entryY=0.5;entryDx=0;entryDy=0;endArrow=none;endFill=0;" edge="1" parent="1" source="lhGTcvj3qofk5hR5HP2g-1" target="lhGTcvj3qofk5hR5HP2g-2">
          <mxGeometry relative="1" as="geometry">
            <Array as="points">
              <mxPoint x="150" y="360" />
              <mxPoint x="150" y="140" />
            </Array>
          </mxGeometry>
        </mxCell>
        <mxCell id="lhGTcvj3qofk5hR5HP2g-18" style="edgeStyle=orthogonalEdgeStyle;rounded=0;orthogonalLoop=1;jettySize=auto;html=1;exitX=1;exitY=0.5;exitDx=0;exitDy=0;entryX=0;entryY=0.5;entryDx=0;entryDy=0;endArrow=none;endFill=0;" edge="1" parent="1" source="lhGTcvj3qofk5hR5HP2g-1" target="lhGTcvj3qofk5hR5HP2g-4">
          <mxGeometry relative="1" as="geometry" />
        </mxCell>
        <mxCell id="lhGTcvj3qofk5hR5HP2g-1" value="Physical Datacenter" style="rounded=0;whiteSpace=wrap;html=1;" vertex="1" parent="1">
          <mxGeometry x="200" y="330" width="120" height="60" as="geometry" />
        </mxCell>
        <mxCell id="lhGTcvj3qofk5hR5HP2g-20" style="edgeStyle=orthogonalEdgeStyle;rounded=0;orthogonalLoop=1;jettySize=auto;html=1;exitX=1;exitY=0.5;exitDx=0;exitDy=0;entryX=0;entryY=0.5;entryDx=0;entryDy=0;endArrow=none;endFill=0;" edge="1" parent="1" source="lhGTcvj3qofk5hR5HP2g-2" target="lhGTcvj3qofk5hR5HP2g-4">
          <mxGeometry relative="1" as="geometry" />
        </mxCell>
        <mxCell id="lhGTcvj3qofk5hR5HP2g-2" value="Google Cloud Platform" style="rounded=0;whiteSpace=wrap;html=1;" vertex="1" parent="1">
          <mxGeometry x="200" y="110" width="120" height="60" as="geometry" />
        </mxCell>
        <mxCell id="lhGTcvj3qofk5hR5HP2g-19" style="edgeStyle=orthogonalEdgeStyle;rounded=0;orthogonalLoop=1;jettySize=auto;html=1;exitX=1;exitY=0.5;exitDx=0;exitDy=0;entryX=0;entryY=0.5;entryDx=0;entryDy=0;endArrow=none;endFill=0;" edge="1" parent="1" source="lhGTcvj3qofk5hR5HP2g-3" target="lhGTcvj3qofk5hR5HP2g-4">
          <mxGeometry relative="1" as="geometry" />
        </mxCell>
        <mxCell id="lhGTcvj3qofk5hR5HP2g-3" value="Azure" style="rounded=0;whiteSpace=wrap;html=1;" vertex="1" parent="1">
          <mxGeometry x="200" y="220" width="120" height="60" as="geometry" />
        </mxCell>
        <mxCell id="lhGTcvj3qofk5hR5HP2g-4" value="SaaS Providers" style="rounded=0;whiteSpace=wrap;html=1;" vertex="1" parent="1">
          <mxGeometry x="450" y="220" width="120" height="60" as="geometry" />
        </mxCell>
        <mxCell id="lhGTcvj3qofk5hR5HP2g-10" style="edgeStyle=orthogonalEdgeStyle;rounded=0;orthogonalLoop=1;jettySize=auto;html=1;exitX=0.5;exitY=0;exitDx=0;exitDy=0;entryX=0;entryY=0.5;entryDx=0;entryDy=0;endArrow=none;endFill=0;" edge="1" parent="1" source="lhGTcvj3qofk5hR5HP2g-6" target="lhGTcvj3qofk5hR5HP2g-9">
          <mxGeometry relative="1" as="geometry" />
        </mxCell>
        <mxCell id="lhGTcvj3qofk5hR5HP2g-6" value="Distribution&amp;nbsp;" style="rounded=0;whiteSpace=wrap;html=1;" vertex="1" parent="1">
          <mxGeometry x="120" y="530" width="80" height="40" as="geometry" />
        </mxCell>
        <mxCell id="lhGTcvj3qofk5hR5HP2g-11" style="edgeStyle=orthogonalEdgeStyle;rounded=0;orthogonalLoop=1;jettySize=auto;html=1;exitX=0.5;exitY=0;exitDx=0;exitDy=0;entryX=0;entryY=0.5;entryDx=0;entryDy=0;endArrow=none;endFill=0;" edge="1" parent="1" source="lhGTcvj3qofk5hR5HP2g-7" target="lhGTcvj3qofk5hR5HP2g-9">
          <mxGeometry relative="1" as="geometry" />
        </mxCell>
        <mxCell id="lhGTcvj3qofk5hR5HP2g-7" value="Stores" style="rounded=0;whiteSpace=wrap;html=1;" vertex="1" parent="1">
          <mxGeometry x="320" y="530" width="80" height="40" as="geometry" />
        </mxCell>
        <mxCell id="lhGTcvj3qofk5hR5HP2g-9" value="" style="triangle;whiteSpace=wrap;html=1;rotation=-90;" vertex="1" parent="1">
          <mxGeometry x="210" y="427.5" width="100" height="25" as="geometry" />
        </mxCell>
        <mxCell id="lhGTcvj3qofk5hR5HP2g-24" value="Physical Datacenter&lt;br&gt;Region 1" style="rounded=0;whiteSpace=wrap;html=1;" vertex="1" parent="1">
          <mxGeometry x="760" y="330" width="120" height="60" as="geometry" />
        </mxCell>
        <mxCell id="lhGTcvj3qofk5hR5HP2g-26" value="Google Cloud Platform&lt;br&gt;Region 1" style="rounded=0;whiteSpace=wrap;html=1;" vertex="1" parent="1">
          <mxGeometry x="860" y="120" width="80" height="60" as="geometry" />
        </mxCell>
        <mxCell id="lhGTcvj3qofk5hR5HP2g-54" style="edgeStyle=orthogonalEdgeStyle;rounded=0;orthogonalLoop=1;jettySize=auto;html=1;exitX=1;exitY=0;exitDx=0;exitDy=0;entryX=0;entryY=0;entryDx=0;entryDy=0;endArrow=none;endFill=0;dashed=1;dashPattern=8 8;" edge="1" parent="1" source="lhGTcvj3qofk5hR5HP2g-28" target="lhGTcvj3qofk5hR5HP2g-42">
          <mxGeometry relative="1" as="geometry">
            <Array as="points">
              <mxPoint x="720" y="90" />
              <mxPoint x="760" y="90" />
            </Array>
          </mxGeometry>
        </mxCell>
        <mxCell id="lhGTcvj3qofk5hR5HP2g-28" value="Azure&lt;br&gt;Region 1" style="rounded=0;whiteSpace=wrap;html=1;" vertex="1" parent="1">
          <mxGeometry x="660" y="120" width="60" height="60" as="geometry" />
        </mxCell>
        <mxCell id="lhGTcvj3qofk5hR5HP2g-29" value="SaaS Providers&lt;br&gt;Region 1 &lt;br&gt;and/or 2" style="rounded=0;whiteSpace=wrap;html=1;" vertex="1" parent="1">
          <mxGeometry x="1100" y="120" width="90" height="60" as="geometry" />
        </mxCell>
        <mxCell id="lhGTcvj3qofk5hR5HP2g-38" style="rounded=0;orthogonalLoop=1;jettySize=auto;html=1;exitX=0.863;exitY=-0.006;exitDx=0;exitDy=0;entryX=0.25;entryY=1;entryDx=0;entryDy=0;endArrow=none;endFill=0;shape=link;strokeWidth=2;exitPerimeter=0;" edge="1" parent="1" source="lhGTcvj3qofk5hR5HP2g-31" target="lhGTcvj3qofk5hR5HP2g-36">
          <mxGeometry relative="1" as="geometry" />
        </mxCell>
        <mxCell id="lhGTcvj3qofk5hR5HP2g-31" value="Distribution&amp;nbsp;" style="rounded=0;whiteSpace=wrap;html=1;" vertex="1" parent="1">
          <mxGeometry x="760" y="530" width="80" height="40" as="geometry" />
        </mxCell>
        <mxCell id="lhGTcvj3qofk5hR5HP2g-33" value="Stores" style="rounded=0;whiteSpace=wrap;html=1;" vertex="1" parent="1">
          <mxGeometry x="960" y="530" width="80" height="40" as="geometry" />
        </mxCell>
        <mxCell id="lhGTcvj3qofk5hR5HP2g-36" value="Physical Datacenter&lt;br&gt;Region 2" style="rounded=0;whiteSpace=wrap;html=1;" vertex="1" parent="1">
          <mxGeometry x="920" y="330" width="120" height="60" as="geometry" />
        </mxCell>
        <mxCell id="lhGTcvj3qofk5hR5HP2g-37" style="rounded=0;orthogonalLoop=1;jettySize=auto;html=1;exitX=0.25;exitY=0;exitDx=0;exitDy=0;entryX=0.169;entryY=0.996;entryDx=0;entryDy=0;entryPerimeter=0;endArrow=none;endFill=0;shape=link;strokeWidth=2;" edge="1" parent="1" source="lhGTcvj3qofk5hR5HP2g-31" target="lhGTcvj3qofk5hR5HP2g-24">
          <mxGeometry relative="1" as="geometry" />
        </mxCell>
        <mxCell id="lhGTcvj3qofk5hR5HP2g-39" style="rounded=0;orthogonalLoop=1;jettySize=auto;html=1;entryX=0.75;entryY=1;entryDx=0;entryDy=0;endArrow=none;endFill=0;shape=link;strokeWidth=2;" edge="1" parent="1" source="lhGTcvj3qofk5hR5HP2g-33" target="lhGTcvj3qofk5hR5HP2g-24">
          <mxGeometry relative="1" as="geometry">
            <mxPoint x="790" y="540" as="sourcePoint" />
            <mxPoint x="790" y="400" as="targetPoint" />
          </mxGeometry>
        </mxCell>
        <mxCell id="lhGTcvj3qofk5hR5HP2g-40" style="rounded=0;orthogonalLoop=1;jettySize=auto;html=1;entryX=0.846;entryY=1.038;entryDx=0;entryDy=0;endArrow=none;endFill=0;shape=link;strokeWidth=2;exitX=0.75;exitY=0;exitDx=0;exitDy=0;entryPerimeter=0;" edge="1" parent="1" source="lhGTcvj3qofk5hR5HP2g-33" target="lhGTcvj3qofk5hR5HP2g-36">
          <mxGeometry relative="1" as="geometry">
            <mxPoint x="991" y="540" as="sourcePoint" />
            <mxPoint x="860" y="400" as="targetPoint" />
          </mxGeometry>
        </mxCell>
        <mxCell id="lhGTcvj3qofk5hR5HP2g-42" value="Azure&lt;br&gt;Region 2" style="rounded=0;whiteSpace=wrap;html=1;" vertex="1" parent="1">
          <mxGeometry x="760" y="120" width="60" height="60" as="geometry" />
        </mxCell>
        <mxCell id="lhGTcvj3qofk5hR5HP2g-43" value="Google Cloud Platform&lt;br&gt;Region 1" style="rounded=0;whiteSpace=wrap;html=1;" vertex="1" parent="1">
          <mxGeometry x="980" y="120" width="80" height="60" as="geometry" />
        </mxCell>
        <mxCell id="lhGTcvj3qofk5hR5HP2g-44" value="Inter-connect" style="ellipse;whiteSpace=wrap;html=1;aspect=fixed;" vertex="1" parent="1">
          <mxGeometry x="870" y="220" width="60" height="60" as="geometry" />
        </mxCell>
        <mxCell id="lhGTcvj3qofk5hR5HP2g-45" style="rounded=0;orthogonalLoop=1;jettySize=auto;html=1;exitX=0.25;exitY=0;exitDx=0;exitDy=0;endArrow=none;endFill=0;shape=link;strokeWidth=2;" edge="1" parent="1" source="lhGTcvj3qofk5hR5HP2g-24" target="lhGTcvj3qofk5hR5HP2g-44">
          <mxGeometry relative="1" as="geometry">
            <mxPoint x="730" y="340" as="sourcePoint" />
            <mxPoint x="730" y="200" as="targetPoint" />
          </mxGeometry>
        </mxCell>
        <mxCell id="lhGTcvj3qofk5hR5HP2g-46" style="rounded=0;orthogonalLoop=1;jettySize=auto;html=1;exitX=0.75;exitY=0;exitDx=0;exitDy=0;endArrow=none;endFill=0;shape=link;strokeWidth=2;" edge="1" parent="1" source="lhGTcvj3qofk5hR5HP2g-24">
          <mxGeometry relative="1" as="geometry">
            <mxPoint x="800" y="340" as="sourcePoint" />
            <mxPoint x="886" y="278" as="targetPoint" />
          </mxGeometry>
        </mxCell>
        <mxCell id="lhGTcvj3qofk5hR5HP2g-47" style="rounded=0;orthogonalLoop=1;jettySize=auto;html=1;endArrow=none;endFill=0;shape=link;strokeWidth=2;entryX=0.713;entryY=1.017;entryDx=0;entryDy=0;entryPerimeter=0;" edge="1" parent="1" source="lhGTcvj3qofk5hR5HP2g-36" target="lhGTcvj3qofk5hR5HP2g-44">
          <mxGeometry relative="1" as="geometry">
            <mxPoint x="860" y="340" as="sourcePoint" />
            <mxPoint x="896" y="288" as="targetPoint" />
          </mxGeometry>
        </mxCell>
        <mxCell id="lhGTcvj3qofk5hR5HP2g-48" style="rounded=0;orthogonalLoop=1;jettySize=auto;html=1;endArrow=none;endFill=0;shape=link;strokeWidth=2;entryX=1;entryY=0.667;entryDx=0;entryDy=0;entryPerimeter=0;exitX=0.75;exitY=0;exitDx=0;exitDy=0;" edge="1" parent="1" source="lhGTcvj3qofk5hR5HP2g-36" target="lhGTcvj3qofk5hR5HP2g-44">
          <mxGeometry relative="1" as="geometry">
            <mxPoint x="964" y="340" as="sourcePoint" />
            <mxPoint x="923" y="291" as="targetPoint" />
          </mxGeometry>
        </mxCell>
        <mxCell id="lhGTcvj3qofk5hR5HP2g-49" style="rounded=0;orthogonalLoop=1;jettySize=auto;html=1;endArrow=none;endFill=0;shape=link;strokeWidth=2;entryX=0.5;entryY=1;entryDx=0;entryDy=0;exitX=0.046;exitY=0.371;exitDx=0;exitDy=0;exitPerimeter=0;" edge="1" parent="1" source="lhGTcvj3qofk5hR5HP2g-44" target="lhGTcvj3qofk5hR5HP2g-28">
          <mxGeometry relative="1" as="geometry">
            <mxPoint x="1020" y="340" as="sourcePoint" />
            <mxPoint x="940" y="270" as="targetPoint" />
          </mxGeometry>
        </mxCell>
        <mxCell id="lhGTcvj3qofk5hR5HP2g-50" style="rounded=0;orthogonalLoop=1;jettySize=auto;html=1;endArrow=none;endFill=0;shape=link;strokeWidth=2;entryX=0.5;entryY=1;entryDx=0;entryDy=0;exitX=0;exitY=0;exitDx=0;exitDy=0;" edge="1" parent="1" source="lhGTcvj3qofk5hR5HP2g-44" target="lhGTcvj3qofk5hR5HP2g-42">
          <mxGeometry relative="1" as="geometry">
            <mxPoint x="883" y="252" as="sourcePoint" />
            <mxPoint x="700" y="190" as="targetPoint" />
          </mxGeometry>
        </mxCell>
        <mxCell id="lhGTcvj3qofk5hR5HP2g-51" style="rounded=0;orthogonalLoop=1;jettySize=auto;html=1;endArrow=none;endFill=0;shape=link;strokeWidth=2;entryX=0.5;entryY=1;entryDx=0;entryDy=0;exitX=0.5;exitY=0;exitDx=0;exitDy=0;" edge="1" parent="1" source="lhGTcvj3qofk5hR5HP2g-44" target="lhGTcvj3qofk5hR5HP2g-26">
          <mxGeometry relative="1" as="geometry">
            <mxPoint x="889" y="239" as="sourcePoint" />
            <mxPoint x="800" y="190" as="targetPoint" />
          </mxGeometry>
        </mxCell>
        <mxCell id="lhGTcvj3qofk5hR5HP2g-52" style="rounded=0;orthogonalLoop=1;jettySize=auto;html=1;endArrow=none;endFill=0;shape=link;strokeWidth=2;entryX=0.5;entryY=1;entryDx=0;entryDy=0;exitX=1;exitY=0;exitDx=0;exitDy=0;" edge="1" parent="1" source="lhGTcvj3qofk5hR5HP2g-44" target="lhGTcvj3qofk5hR5HP2g-43">
          <mxGeometry relative="1" as="geometry">
            <mxPoint x="910" y="230" as="sourcePoint" />
            <mxPoint x="910" y="190" as="targetPoint" />
          </mxGeometry>
        </mxCell>
        <mxCell id="lhGTcvj3qofk5hR5HP2g-53" style="rounded=0;orthogonalLoop=1;jettySize=auto;html=1;endArrow=none;endFill=0;shape=link;strokeWidth=2;entryX=0.5;entryY=1;entryDx=0;entryDy=0;exitX=1;exitY=0;exitDx=0;exitDy=0;" edge="1" parent="1" target="lhGTcvj3qofk5hR5HP2g-29">
          <mxGeometry relative="1" as="geometry">
            <mxPoint x="931" y="239" as="sourcePoint" />
            <mxPoint x="1030" y="190" as="targetPoint" />
          </mxGeometry>
        </mxCell>
        <mxCell id="lhGTcvj3qofk5hR5HP2g-55" style="edgeStyle=orthogonalEdgeStyle;rounded=0;orthogonalLoop=1;jettySize=auto;html=1;exitX=1;exitY=0;exitDx=0;exitDy=0;entryX=0;entryY=0;entryDx=0;entryDy=0;endArrow=none;endFill=0;dashed=1;dashPattern=8 8;" edge="1" parent="1">
          <mxGeometry relative="1" as="geometry">
            <mxPoint x="940" y="120" as="sourcePoint" />
            <mxPoint x="980" y="120" as="targetPoint" />
            <Array as="points">
              <mxPoint x="940" y="90" />
              <mxPoint x="980" y="90" />
            </Array>
          </mxGeometry>
        </mxCell>
        <mxCell id="lhGTcvj3qofk5hR5HP2g-56" style="edgeStyle=orthogonalEdgeStyle;rounded=0;orthogonalLoop=1;jettySize=auto;html=1;exitX=1;exitY=0;exitDx=0;exitDy=0;entryX=0;entryY=0;entryDx=0;entryDy=0;endArrow=none;endFill=0;dashed=1;dashPattern=8 8;" edge="1" parent="1">
          <mxGeometry relative="1" as="geometry">
            <mxPoint x="880" y="360" as="sourcePoint" />
            <mxPoint x="920" y="360" as="targetPoint" />
            <Array as="points">
              <mxPoint x="900" y="360" />
              <mxPoint x="900" y="360" />
            </Array>
          </mxGeometry>
        </mxCell>
        <mxCell id="lhGTcvj3qofk5hR5HP2g-57" value="&lt;b&gt;&lt;font style=&quot;font-size: 18px;&quot;&gt;Current Infrastructure&lt;/font&gt;&lt;/b&gt;" style="text;html=1;align=center;verticalAlign=middle;resizable=0;points=[];autosize=1;strokeColor=none;fillColor=none;" vertex="1" parent="1">
          <mxGeometry x="160" y="40" width="210" height="40" as="geometry" />
        </mxCell>
        <mxCell id="lhGTcvj3qofk5hR5HP2g-58" value="&lt;b&gt;&lt;font style=&quot;font-size: 18px;&quot;&gt;Resilient Infrastructure&lt;/font&gt;&lt;/b&gt;" style="text;html=1;align=center;verticalAlign=middle;resizable=0;points=[];autosize=1;strokeColor=none;fillColor=none;" vertex="1" parent="1">
          <mxGeometry x="790" y="30" width="220" height="40" as="geometry" />
        </mxCell>
        <mxCell id="lhGTcvj3qofk5hR5HP2g-59" value="" style="endArrow=none;html=1;rounded=0;shape=link;" edge="1" parent="1">
          <mxGeometry width="50" height="50" relative="1" as="geometry">
            <mxPoint x="483" y="459.5" as="sourcePoint" />
            <mxPoint x="543" y="459.5" as="targetPoint" />
          </mxGeometry>
        </mxCell>
        <mxCell id="lhGTcvj3qofk5hR5HP2g-60" value="" style="endArrow=none;html=1;rounded=0;" edge="1" parent="1">
          <mxGeometry width="50" height="50" relative="1" as="geometry">
            <mxPoint x="483" y="409.5" as="sourcePoint" />
            <mxPoint x="543" y="409.5" as="targetPoint" />
          </mxGeometry>
        </mxCell>
        <mxCell id="lhGTcvj3qofk5hR5HP2g-61" value="" style="endArrow=none;html=1;rounded=0;dashed=1;dashPattern=8 8;" edge="1" parent="1">
          <mxGeometry width="50" height="50" relative="1" as="geometry">
            <mxPoint x="483" y="508" as="sourcePoint" />
            <mxPoint x="543" y="508" as="targetPoint" />
          </mxGeometry>
        </mxCell>
        <mxCell id="lhGTcvj3qofk5hR5HP2g-62" value="" style="triangle;whiteSpace=wrap;html=1;rotation=0;" vertex="1" parent="1">
          <mxGeometry x="483" y="540" width="60" height="20" as="geometry" />
        </mxCell>
        <mxCell id="lhGTcvj3qofk5hR5HP2g-63" value="Single hardware&lt;br&gt;Single connect" style="text;html=1;align=left;verticalAlign=middle;resizable=0;points=[];autosize=1;strokeColor=none;fillColor=none;" vertex="1" parent="1">
          <mxGeometry x="553" y="390" width="110" height="40" as="geometry" />
        </mxCell>
        <mxCell id="lhGTcvj3qofk5hR5HP2g-64" value="Redundant hardware&lt;br&gt;Redundant connect" style="text;html=1;align=left;verticalAlign=middle;resizable=0;points=[];autosize=1;strokeColor=none;fillColor=none;" vertex="1" parent="1">
          <mxGeometry x="553" y="440" width="140" height="40" as="geometry" />
        </mxCell>
        <mxCell id="lhGTcvj3qofk5hR5HP2g-65" value="HA/DR paired environments&lt;br&gt;Redundant connects" style="text;html=1;align=left;verticalAlign=middle;resizable=0;points=[];autosize=1;strokeColor=none;fillColor=none;" vertex="1" parent="1">
          <mxGeometry x="553" y="490" width="170" height="40" as="geometry" />
        </mxCell>
        <mxCell id="lhGTcvj3qofk5hR5HP2g-66" value="Funnel point" style="text;html=1;align=left;verticalAlign=middle;resizable=0;points=[];autosize=1;strokeColor=none;fillColor=none;" vertex="1" parent="1">
          <mxGeometry x="553" y="535" width="90" height="30" as="geometry" />
        </mxCell>
        <mxCell id="lhGTcvj3qofk5hR5HP2g-68" value="&lt;font style=&quot;font-size: 16px;&quot;&gt;Application Pattern Supported&lt;/font&gt;" style="text;html=1;align=center;verticalAlign=middle;resizable=0;points=[];autosize=1;strokeColor=none;fillColor=none;fontStyle=1" vertex="1" parent="1">
          <mxGeometry x="125" y="620" width="250" height="30" as="geometry" />
        </mxCell>
        <mxCell id="lhGTcvj3qofk5hR5HP2g-73" value="&lt;font style=&quot;font-size: 16px;&quot;&gt;Application Pattern Supported&lt;/font&gt;" style="text;html=1;align=center;verticalAlign=middle;resizable=0;points=[];autosize=1;strokeColor=none;fillColor=none;fontStyle=1" vertex="1" parent="1">
          <mxGeometry x="775" y="620" width="250" height="30" as="geometry" />
        </mxCell>
        <mxCell id="lhGTcvj3qofk5hR5HP2g-81" value="Assets" style="childLayout=tableLayout;recursiveResize=0;strokeColor=#98bf21;fillColor=#A7C942;shadow=1;" vertex="1" parent="1">
          <mxGeometry x="63.5" y="660" width="373" height="65" as="geometry" />
        </mxCell>
        <mxCell id="lhGTcvj3qofk5hR5HP2g-82" style="shape=tableRow;horizontal=0;startSize=0;swimlaneHead=0;swimlaneBody=0;top=0;left=0;bottom=0;right=0;dropTarget=0;collapsible=0;recursiveResize=0;expand=0;fontStyle=0;strokeColor=inherit;fillColor=#ffffff;" vertex="1" parent="lhGTcvj3qofk5hR5HP2g-81">
          <mxGeometry width="373" height="33" as="geometry" />
        </mxCell>
        <mxCell id="lhGTcvj3qofk5hR5HP2g-83" value="Site 1" style="connectable=0;recursiveResize=0;strokeColor=inherit;fillColor=#A7C942;align=center;fontStyle=1;fontColor=#FFFFFF;html=1;" vertex="1" parent="lhGTcvj3qofk5hR5HP2g-82">
          <mxGeometry width="93" height="33" as="geometry">
            <mxRectangle width="93" height="33" as="alternateBounds" />
          </mxGeometry>
        </mxCell>
        <mxCell id="lhGTcvj3qofk5hR5HP2g-84" value="Site 2" style="connectable=0;recursiveResize=0;strokeColor=inherit;fillColor=#A7C942;align=center;fontStyle=1;fontColor=#FFFFFF;html=1;" vertex="1" parent="lhGTcvj3qofk5hR5HP2g-82">
          <mxGeometry x="93" width="94" height="33" as="geometry">
            <mxRectangle width="94" height="33" as="alternateBounds" />
          </mxGeometry>
        </mxCell>
        <mxCell id="lhGTcvj3qofk5hR5HP2g-85" value="Operations" style="connectable=0;recursiveResize=0;strokeColor=inherit;fillColor=#A7C942;align=center;fontStyle=1;fontColor=#FFFFFF;html=1;" vertex="1" parent="lhGTcvj3qofk5hR5HP2g-82">
          <mxGeometry x="187" width="93" height="33" as="geometry">
            <mxRectangle width="93" height="33" as="alternateBounds" />
          </mxGeometry>
        </mxCell>
        <mxCell id="lhGTcvj3qofk5hR5HP2g-112" value="Availability" style="connectable=0;recursiveResize=0;strokeColor=inherit;fillColor=#A7C942;align=center;fontStyle=1;fontColor=#FFFFFF;html=1;" vertex="1" parent="lhGTcvj3qofk5hR5HP2g-82">
          <mxGeometry x="280" width="93" height="33" as="geometry">
            <mxRectangle width="93" height="33" as="alternateBounds" />
          </mxGeometry>
        </mxCell>
        <mxCell id="lhGTcvj3qofk5hR5HP2g-86" value="" style="shape=tableRow;horizontal=0;startSize=0;swimlaneHead=0;swimlaneBody=0;top=0;left=0;bottom=0;right=0;dropTarget=0;collapsible=0;recursiveResize=0;expand=0;fontStyle=0;strokeColor=inherit;fillColor=#ffffff;" vertex="1" parent="lhGTcvj3qofk5hR5HP2g-81">
          <mxGeometry y="33" width="373" height="32" as="geometry" />
        </mxCell>
        <mxCell id="lhGTcvj3qofk5hR5HP2g-87" value="Active" style="connectable=0;recursiveResize=0;strokeColor=inherit;fillColor=inherit;align=center;whiteSpace=wrap;html=1;" vertex="1" parent="lhGTcvj3qofk5hR5HP2g-86">
          <mxGeometry width="93" height="32" as="geometry">
            <mxRectangle width="93" height="32" as="alternateBounds" />
          </mxGeometry>
        </mxCell>
        <mxCell id="lhGTcvj3qofk5hR5HP2g-88" value="DR (Cold)" style="connectable=0;recursiveResize=0;strokeColor=inherit;fillColor=inherit;align=center;whiteSpace=wrap;html=1;" vertex="1" parent="lhGTcvj3qofk5hR5HP2g-86">
          <mxGeometry x="93" width="94" height="32" as="geometry">
            <mxRectangle width="94" height="32" as="alternateBounds" />
          </mxGeometry>
        </mxCell>
        <mxCell id="lhGTcvj3qofk5hR5HP2g-89" value="Manual Failover - Same Region" style="connectable=0;recursiveResize=0;strokeColor=inherit;fillColor=inherit;align=center;whiteSpace=wrap;html=1;" vertex="1" parent="lhGTcvj3qofk5hR5HP2g-86">
          <mxGeometry x="187" width="93" height="32" as="geometry">
            <mxRectangle width="93" height="32" as="alternateBounds" />
          </mxGeometry>
        </mxCell>
        <mxCell id="lhGTcvj3qofk5hR5HP2g-113" value="99.5%" style="connectable=0;recursiveResize=0;strokeColor=inherit;fillColor=inherit;align=center;whiteSpace=wrap;html=1;" vertex="1" parent="lhGTcvj3qofk5hR5HP2g-86">
          <mxGeometry x="280" width="93" height="32" as="geometry">
            <mxRectangle width="93" height="32" as="alternateBounds" />
          </mxGeometry>
        </mxCell>
        <mxCell id="lhGTcvj3qofk5hR5HP2g-117" value="Assets" style="childLayout=tableLayout;recursiveResize=0;strokeColor=#98bf21;fillColor=#A7C942;shadow=1;" vertex="1" parent="1">
          <mxGeometry x="713.5" y="660" width="373" height="160" as="geometry" />
        </mxCell>
        <mxCell id="lhGTcvj3qofk5hR5HP2g-118" style="shape=tableRow;horizontal=0;startSize=0;swimlaneHead=0;swimlaneBody=0;top=0;left=0;bottom=0;right=0;dropTarget=0;collapsible=0;recursiveResize=0;expand=0;fontStyle=0;strokeColor=inherit;fillColor=#ffffff;" vertex="1" parent="lhGTcvj3qofk5hR5HP2g-117">
          <mxGeometry width="373" height="33" as="geometry" />
        </mxCell>
        <mxCell id="lhGTcvj3qofk5hR5HP2g-119" value="Region 1" style="connectable=0;recursiveResize=0;strokeColor=inherit;fillColor=#A7C942;align=center;fontStyle=1;fontColor=#FFFFFF;html=1;" vertex="1" parent="lhGTcvj3qofk5hR5HP2g-118">
          <mxGeometry width="93" height="33" as="geometry">
            <mxRectangle width="93" height="33" as="alternateBounds" />
          </mxGeometry>
        </mxCell>
        <mxCell id="lhGTcvj3qofk5hR5HP2g-120" value="Region 2" style="connectable=0;recursiveResize=0;strokeColor=inherit;fillColor=#A7C942;align=center;fontStyle=1;fontColor=#FFFFFF;html=1;" vertex="1" parent="lhGTcvj3qofk5hR5HP2g-118">
          <mxGeometry x="93" width="94" height="33" as="geometry">
            <mxRectangle width="94" height="33" as="alternateBounds" />
          </mxGeometry>
        </mxCell>
        <mxCell id="lhGTcvj3qofk5hR5HP2g-121" value="Operations" style="connectable=0;recursiveResize=0;strokeColor=inherit;fillColor=#A7C942;align=center;fontStyle=1;fontColor=#FFFFFF;html=1;" vertex="1" parent="lhGTcvj3qofk5hR5HP2g-118">
          <mxGeometry x="187" width="93" height="33" as="geometry">
            <mxRectangle width="93" height="33" as="alternateBounds" />
          </mxGeometry>
        </mxCell>
        <mxCell id="lhGTcvj3qofk5hR5HP2g-122" value="Availability" style="connectable=0;recursiveResize=0;strokeColor=inherit;fillColor=#A7C942;align=center;fontStyle=1;fontColor=#FFFFFF;html=1;" vertex="1" parent="lhGTcvj3qofk5hR5HP2g-118">
          <mxGeometry x="280" width="93" height="33" as="geometry">
            <mxRectangle width="93" height="33" as="alternateBounds" />
          </mxGeometry>
        </mxCell>
        <mxCell id="lhGTcvj3qofk5hR5HP2g-123" value="" style="shape=tableRow;horizontal=0;startSize=0;swimlaneHead=0;swimlaneBody=0;top=0;left=0;bottom=0;right=0;dropTarget=0;collapsible=0;recursiveResize=0;expand=0;fontStyle=0;strokeColor=inherit;fillColor=#ffffff;" vertex="1" parent="lhGTcvj3qofk5hR5HP2g-117">
          <mxGeometry y="33" width="373" height="32" as="geometry" />
        </mxCell>
        <mxCell id="lhGTcvj3qofk5hR5HP2g-124" value="Active" style="connectable=0;recursiveResize=0;strokeColor=inherit;fillColor=inherit;align=center;whiteSpace=wrap;html=1;" vertex="1" parent="lhGTcvj3qofk5hR5HP2g-123">
          <mxGeometry width="93" height="32" as="geometry">
            <mxRectangle width="93" height="32" as="alternateBounds" />
          </mxGeometry>
        </mxCell>
        <mxCell id="lhGTcvj3qofk5hR5HP2g-125" value="DR" style="connectable=0;recursiveResize=0;strokeColor=inherit;fillColor=inherit;align=center;whiteSpace=wrap;html=1;" vertex="1" parent="lhGTcvj3qofk5hR5HP2g-123">
          <mxGeometry x="93" width="94" height="32" as="geometry">
            <mxRectangle width="94" height="32" as="alternateBounds" />
          </mxGeometry>
        </mxCell>
        <mxCell id="lhGTcvj3qofk5hR5HP2g-126" value="Manual Failover" style="connectable=0;recursiveResize=0;strokeColor=inherit;fillColor=inherit;align=center;whiteSpace=wrap;html=1;" vertex="1" parent="lhGTcvj3qofk5hR5HP2g-123">
          <mxGeometry x="187" width="93" height="32" as="geometry">
            <mxRectangle width="93" height="32" as="alternateBounds" />
          </mxGeometry>
        </mxCell>
        <mxCell id="lhGTcvj3qofk5hR5HP2g-127" value="99.5%" style="connectable=0;recursiveResize=0;strokeColor=inherit;fillColor=inherit;align=center;whiteSpace=wrap;html=1;" vertex="1" parent="lhGTcvj3qofk5hR5HP2g-123">
          <mxGeometry x="280" width="93" height="32" as="geometry">
            <mxRectangle width="93" height="32" as="alternateBounds" />
          </mxGeometry>
        </mxCell>
        <mxCell id="lhGTcvj3qofk5hR5HP2g-128" value="" style="shape=tableRow;horizontal=0;startSize=0;swimlaneHead=0;swimlaneBody=0;top=0;left=0;bottom=0;right=0;dropTarget=0;collapsible=0;recursiveResize=0;expand=0;fontStyle=1;strokeColor=inherit;fillColor=#EAF2D3;" vertex="1" parent="lhGTcvj3qofk5hR5HP2g-117">
          <mxGeometry y="65" width="373" height="31" as="geometry" />
        </mxCell>
        <mxCell id="lhGTcvj3qofk5hR5HP2g-129" value="Active" style="connectable=0;recursiveResize=0;strokeColor=inherit;fillColor=inherit;whiteSpace=wrap;html=1;" vertex="1" parent="lhGTcvj3qofk5hR5HP2g-128">
          <mxGeometry width="93" height="31" as="geometry">
            <mxRectangle width="93" height="31" as="alternateBounds" />
          </mxGeometry>
        </mxCell>
        <mxCell id="lhGTcvj3qofk5hR5HP2g-130" value="Passive (Warm)" style="connectable=0;recursiveResize=0;strokeColor=inherit;fillColor=inherit;whiteSpace=wrap;html=1;" vertex="1" parent="lhGTcvj3qofk5hR5HP2g-128">
          <mxGeometry x="93" width="94" height="31" as="geometry">
            <mxRectangle width="94" height="31" as="alternateBounds" />
          </mxGeometry>
        </mxCell>
        <mxCell id="lhGTcvj3qofk5hR5HP2g-131" value="Auto Failover Auto Provision" style="connectable=0;recursiveResize=0;strokeColor=inherit;fillColor=inherit;whiteSpace=wrap;html=1;" vertex="1" parent="lhGTcvj3qofk5hR5HP2g-128">
          <mxGeometry x="187" width="93" height="31" as="geometry">
            <mxRectangle width="93" height="31" as="alternateBounds" />
          </mxGeometry>
        </mxCell>
        <mxCell id="lhGTcvj3qofk5hR5HP2g-132" value="99.95%" style="connectable=0;recursiveResize=0;strokeColor=inherit;fillColor=inherit;whiteSpace=wrap;html=1;" vertex="1" parent="lhGTcvj3qofk5hR5HP2g-128">
          <mxGeometry x="280" width="93" height="31" as="geometry">
            <mxRectangle width="93" height="31" as="alternateBounds" />
          </mxGeometry>
        </mxCell>
        <mxCell id="lhGTcvj3qofk5hR5HP2g-133" value="" style="shape=tableRow;horizontal=0;startSize=0;swimlaneHead=0;swimlaneBody=0;top=0;left=0;bottom=0;right=0;dropTarget=0;collapsible=0;recursiveResize=0;expand=0;fontStyle=0;strokeColor=inherit;fillColor=#ffffff;" vertex="1" parent="lhGTcvj3qofk5hR5HP2g-117">
          <mxGeometry y="96" width="373" height="33" as="geometry" />
        </mxCell>
        <mxCell id="lhGTcvj3qofk5hR5HP2g-134" value="Active" style="connectable=0;recursiveResize=0;strokeColor=inherit;fillColor=inherit;fontStyle=0;align=center;whiteSpace=wrap;html=1;" vertex="1" parent="lhGTcvj3qofk5hR5HP2g-133">
          <mxGeometry width="93" height="33" as="geometry">
            <mxRectangle width="93" height="33" as="alternateBounds" />
          </mxGeometry>
        </mxCell>
        <mxCell id="lhGTcvj3qofk5hR5HP2g-135" value="Passive (Hot)" style="connectable=0;recursiveResize=0;strokeColor=inherit;fillColor=inherit;fontStyle=0;align=center;whiteSpace=wrap;html=1;" vertex="1" parent="lhGTcvj3qofk5hR5HP2g-133">
          <mxGeometry x="93" width="94" height="33" as="geometry">
            <mxRectangle width="94" height="33" as="alternateBounds" />
          </mxGeometry>
        </mxCell>
        <mxCell id="lhGTcvj3qofk5hR5HP2g-136" value="Auto Failover" style="connectable=0;recursiveResize=0;strokeColor=inherit;fillColor=inherit;fontStyle=0;align=center;whiteSpace=wrap;html=1;" vertex="1" parent="lhGTcvj3qofk5hR5HP2g-133">
          <mxGeometry x="187" width="93" height="33" as="geometry">
            <mxRectangle width="93" height="33" as="alternateBounds" />
          </mxGeometry>
        </mxCell>
        <mxCell id="lhGTcvj3qofk5hR5HP2g-137" value="99.99%" style="connectable=0;recursiveResize=0;strokeColor=inherit;fillColor=inherit;fontStyle=0;align=center;whiteSpace=wrap;html=1;" vertex="1" parent="lhGTcvj3qofk5hR5HP2g-133">
          <mxGeometry x="280" width="93" height="33" as="geometry">
            <mxRectangle width="93" height="33" as="alternateBounds" />
          </mxGeometry>
        </mxCell>
        <mxCell id="lhGTcvj3qofk5hR5HP2g-138" value="" style="shape=tableRow;horizontal=0;startSize=0;swimlaneHead=0;swimlaneBody=0;top=0;left=0;bottom=0;right=0;dropTarget=0;collapsible=0;recursiveResize=0;expand=0;fontStyle=1;strokeColor=inherit;fillColor=#EAF2D3;" vertex="1" parent="lhGTcvj3qofk5hR5HP2g-117">
          <mxGeometry y="129" width="373" height="31" as="geometry" />
        </mxCell>
        <mxCell id="lhGTcvj3qofk5hR5HP2g-139" value="Active" style="connectable=0;recursiveResize=0;strokeColor=inherit;fillColor=inherit;whiteSpace=wrap;html=1;" vertex="1" parent="lhGTcvj3qofk5hR5HP2g-138">
          <mxGeometry width="93" height="31" as="geometry">
            <mxRectangle width="93" height="31" as="alternateBounds" />
          </mxGeometry>
        </mxCell>
        <mxCell id="lhGTcvj3qofk5hR5HP2g-140" value="Active" style="connectable=0;recursiveResize=0;strokeColor=inherit;fillColor=inherit;whiteSpace=wrap;html=1;" vertex="1" parent="lhGTcvj3qofk5hR5HP2g-138">
          <mxGeometry x="93" width="94" height="31" as="geometry">
            <mxRectangle width="94" height="31" as="alternateBounds" />
          </mxGeometry>
        </mxCell>
        <mxCell id="lhGTcvj3qofk5hR5HP2g-141" value="None" style="connectable=0;recursiveResize=0;strokeColor=inherit;fillColor=inherit;whiteSpace=wrap;html=1;" vertex="1" parent="lhGTcvj3qofk5hR5HP2g-138">
          <mxGeometry x="187" width="93" height="31" as="geometry">
            <mxRectangle width="93" height="31" as="alternateBounds" />
          </mxGeometry>
        </mxCell>
        <mxCell id="lhGTcvj3qofk5hR5HP2g-142" value="99.999%" style="connectable=0;recursiveResize=0;strokeColor=inherit;fillColor=inherit;whiteSpace=wrap;html=1;" vertex="1" parent="lhGTcvj3qofk5hR5HP2g-138">
          <mxGeometry x="280" width="93" height="31" as="geometry">
            <mxRectangle width="93" height="31" as="alternateBounds" />
          </mxGeometry>
        </mxCell>
      </root>
    </mxGraphModel>
  </diagram>
  <diagram id="FQu9sqAaEmFiQA3ShMTC" name="Inventory and Catalog">
    <mxGraphModel dx="1914" dy="966" grid="1" gridSize="10" guides="1" tooltips="1" connect="1" arrows="1" fold="1" page="1" pageScale="1" pageWidth="850" pageHeight="1100" math="0" shadow="0">
      <root>
        <mxCell id="0" />
        <mxCell id="1" parent="0" />
        <mxCell id="0HLfHqASrhSB9UlZw_10-18" value="System of Records (examples)" style="rounded=0;whiteSpace=wrap;html=1;dashed=1;verticalAlign=top;" vertex="1" parent="1">
          <mxGeometry x="50" y="110" width="780" height="80" as="geometry" />
        </mxCell>
        <mxCell id="0HLfHqASrhSB9UlZw_10-9" style="edgeStyle=orthogonalEdgeStyle;rounded=0;orthogonalLoop=1;jettySize=auto;html=1;exitX=0.5;exitY=0;exitDx=0;exitDy=0;entryX=0;entryY=1;entryDx=0;entryDy=0;" edge="1" parent="1" source="0HLfHqASrhSB9UlZw_10-2" target="0HLfHqASrhSB9UlZw_10-6">
          <mxGeometry relative="1" as="geometry" />
        </mxCell>
        <mxCell id="0HLfHqASrhSB9UlZw_10-12" value="Source Data" style="edgeLabel;html=1;align=center;verticalAlign=middle;resizable=0;points=[];" vertex="1" connectable="0" parent="0HLfHqASrhSB9UlZw_10-9">
          <mxGeometry x="-0.0337" y="2" relative="1" as="geometry">
            <mxPoint as="offset" />
          </mxGeometry>
        </mxCell>
        <mxCell id="0HLfHqASrhSB9UlZw_10-20" style="edgeStyle=orthogonalEdgeStyle;rounded=0;orthogonalLoop=1;jettySize=auto;html=1;exitX=0.5;exitY=1;exitDx=0;exitDy=0;entryX=0.5;entryY=0;entryDx=0;entryDy=0;" edge="1" parent="1" source="0HLfHqASrhSB9UlZw_10-2" target="0HLfHqASrhSB9UlZw_10-19">
          <mxGeometry relative="1" as="geometry" />
        </mxCell>
        <mxCell id="0HLfHqASrhSB9UlZw_10-21" value="Chanage Awareness" style="edgeLabel;html=1;align=center;verticalAlign=middle;resizable=0;points=[];" vertex="1" connectable="0" parent="0HLfHqASrhSB9UlZw_10-20">
          <mxGeometry x="-0.1262" y="4" relative="1" as="geometry">
            <mxPoint as="offset" />
          </mxGeometry>
        </mxCell>
        <mxCell id="0HLfHqASrhSB9UlZw_10-2" value="Change Management Database&lt;br&gt;&lt;font style=&quot;font-size: 10px;&quot;&gt;(Asset/CI Inventory)&lt;/font&gt;" style="rounded=0;whiteSpace=wrap;html=1;" vertex="1" parent="1">
          <mxGeometry x="80" y="240" width="160" height="80" as="geometry" />
        </mxCell>
        <mxCell id="0HLfHqASrhSB9UlZw_10-10" style="edgeStyle=orthogonalEdgeStyle;rounded=0;orthogonalLoop=1;jettySize=auto;html=1;exitX=0.5;exitY=0;exitDx=0;exitDy=0;entryX=0;entryY=1;entryDx=0;entryDy=0;" edge="1" parent="1" source="0HLfHqASrhSB9UlZw_10-3" target="0HLfHqASrhSB9UlZw_10-8">
          <mxGeometry relative="1" as="geometry" />
        </mxCell>
        <mxCell id="0HLfHqASrhSB9UlZw_10-13" value="Source Data" style="edgeLabel;html=1;align=center;verticalAlign=middle;resizable=0;points=[];" vertex="1" connectable="0" parent="0HLfHqASrhSB9UlZw_10-10">
          <mxGeometry x="0.0329" relative="1" as="geometry">
            <mxPoint as="offset" />
          </mxGeometry>
        </mxCell>
        <mxCell id="0HLfHqASrhSB9UlZw_10-22" style="edgeStyle=orthogonalEdgeStyle;rounded=0;orthogonalLoop=1;jettySize=auto;html=1;exitX=0.5;exitY=1;exitDx=0;exitDy=0;entryX=0.5;entryY=0;entryDx=0;entryDy=0;" edge="1" parent="1" source="0HLfHqASrhSB9UlZw_10-3" target="0HLfHqASrhSB9UlZw_10-19">
          <mxGeometry relative="1" as="geometry" />
        </mxCell>
        <mxCell id="0HLfHqASrhSB9UlZw_10-23" value="Impact and Outage Awareness" style="edgeLabel;html=1;align=center;verticalAlign=middle;resizable=0;points=[];" vertex="1" connectable="0" parent="0HLfHqASrhSB9UlZw_10-22">
          <mxGeometry x="-0.4331" y="-2" relative="1" as="geometry">
            <mxPoint y="-4" as="offset" />
          </mxGeometry>
        </mxCell>
        <mxCell id="0HLfHqASrhSB9UlZw_10-3" value="Application Portfolio Management&lt;br&gt;&lt;font style=&quot;font-size: 10px;&quot;&gt;(System and Component Inventory)&lt;/font&gt;" style="rounded=0;whiteSpace=wrap;html=1;" vertex="1" parent="1">
          <mxGeometry x="360" y="240" width="160" height="80" as="geometry" />
        </mxCell>
        <mxCell id="0HLfHqASrhSB9UlZw_10-16" style="edgeStyle=orthogonalEdgeStyle;rounded=0;orthogonalLoop=1;jettySize=auto;html=1;exitX=0.5;exitY=0;exitDx=0;exitDy=0;entryX=0;entryY=1;entryDx=0;entryDy=0;" edge="1" parent="1" source="0HLfHqASrhSB9UlZw_10-4" target="0HLfHqASrhSB9UlZw_10-15">
          <mxGeometry relative="1" as="geometry" />
        </mxCell>
        <mxCell id="0HLfHqASrhSB9UlZw_10-17" value="Source Data" style="edgeLabel;html=1;align=center;verticalAlign=middle;resizable=0;points=[];" vertex="1" connectable="0" parent="0HLfHqASrhSB9UlZw_10-16">
          <mxGeometry x="0.0329" relative="1" as="geometry">
            <mxPoint as="offset" />
          </mxGeometry>
        </mxCell>
        <mxCell id="0HLfHqASrhSB9UlZw_10-24" style="edgeStyle=orthogonalEdgeStyle;rounded=0;orthogonalLoop=1;jettySize=auto;html=1;exitX=0.5;exitY=1;exitDx=0;exitDy=0;entryX=0.5;entryY=0;entryDx=0;entryDy=0;" edge="1" parent="1" source="0HLfHqASrhSB9UlZw_10-4" target="0HLfHqASrhSB9UlZw_10-19">
          <mxGeometry relative="1" as="geometry" />
        </mxCell>
        <mxCell id="0HLfHqASrhSB9UlZw_10-25" value="Change&amp;nbsp; and Risk Awareness" style="edgeLabel;html=1;align=center;verticalAlign=middle;resizable=0;points=[];" vertex="1" connectable="0" parent="0HLfHqASrhSB9UlZw_10-24">
          <mxGeometry x="-0.2888" y="-1" relative="1" as="geometry">
            <mxPoint as="offset" />
          </mxGeometry>
        </mxCell>
        <mxCell id="0HLfHqASrhSB9UlZw_10-4" value="Third Party Management&lt;br&gt;(Technology Inventory)" style="rounded=0;whiteSpace=wrap;html=1;" vertex="1" parent="1">
          <mxGeometry x="640" y="240" width="160" height="80" as="geometry" />
        </mxCell>
        <mxCell id="0HLfHqASrhSB9UlZw_10-5" value="Public Cloud" style="rounded=0;whiteSpace=wrap;html=1;" vertex="1" parent="1">
          <mxGeometry x="80" y="140" width="80" height="40" as="geometry" />
        </mxCell>
        <mxCell id="0HLfHqASrhSB9UlZw_10-6" value="Private Cloud" style="rounded=0;whiteSpace=wrap;html=1;" vertex="1" parent="1">
          <mxGeometry x="160" y="140" width="80" height="40" as="geometry" />
        </mxCell>
        <mxCell id="0HLfHqASrhSB9UlZw_10-7" value="Source Code Repository" style="rounded=0;whiteSpace=wrap;html=1;" vertex="1" parent="1">
          <mxGeometry x="360" y="140" width="80" height="40" as="geometry" />
        </mxCell>
        <mxCell id="0HLfHqASrhSB9UlZw_10-8" value="API Management" style="rounded=0;whiteSpace=wrap;html=1;" vertex="1" parent="1">
          <mxGeometry x="440" y="140" width="80" height="40" as="geometry" />
        </mxCell>
        <mxCell id="0HLfHqASrhSB9UlZw_10-14" value="Public Cloud" style="rounded=0;whiteSpace=wrap;html=1;" vertex="1" parent="1">
          <mxGeometry x="640" y="140" width="80" height="40" as="geometry" />
        </mxCell>
        <mxCell id="0HLfHqASrhSB9UlZw_10-15" value="Software Repository" style="rounded=0;whiteSpace=wrap;html=1;" vertex="1" parent="1">
          <mxGeometry x="720" y="140" width="80" height="40" as="geometry" />
        </mxCell>
        <mxCell id="0HLfHqASrhSB9UlZw_10-19" value="Business Service Catalog" style="rounded=0;whiteSpace=wrap;html=1;" vertex="1" parent="1">
          <mxGeometry x="360" y="440" width="160" height="80" as="geometry" />
        </mxCell>
      </root>
    </mxGraphModel>
  </diagram>
  <diagram id="m2YKvgoLs73BCGd5SKKZ" name="Enterprise Architecture">
    <mxGraphModel dx="2764" dy="966" grid="1" gridSize="10" guides="1" tooltips="1" connect="1" arrows="1" fold="1" page="1" pageScale="1" pageWidth="850" pageHeight="1100" math="0" shadow="0">
      <root>
        <mxCell id="0" />
        <mxCell id="1" parent="0" />
        <mxCell id="DTdKcRnx7DcT3utG8M5I-38" style="edgeStyle=orthogonalEdgeStyle;rounded=0;orthogonalLoop=1;jettySize=auto;html=1;exitX=0;exitY=0.5;exitDx=0;exitDy=0;entryX=0;entryY=0.5;entryDx=0;entryDy=0;startArrow=classic;startFill=1;" edge="1" parent="1" source="DTdKcRnx7DcT3utG8M5I-1" target="DTdKcRnx7DcT3utG8M5I-32">
          <mxGeometry relative="1" as="geometry" />
        </mxCell>
        <mxCell id="DTdKcRnx7DcT3utG8M5I-39" value="Collaborates" style="edgeLabel;html=1;align=center;verticalAlign=middle;resizable=0;points=[];fontStyle=1" vertex="1" connectable="0" parent="DTdKcRnx7DcT3utG8M5I-38">
          <mxGeometry x="0.0267" y="1" relative="1" as="geometry">
            <mxPoint y="17" as="offset" />
          </mxGeometry>
        </mxCell>
        <mxCell id="DTdKcRnx7DcT3utG8M5I-1" value="Architecture Practice" style="rounded=0;whiteSpace=wrap;html=1;verticalAlign=top;" vertex="1" parent="1">
          <mxGeometry x="40" y="160" width="200" height="160" as="geometry" />
        </mxCell>
        <mxCell id="DTdKcRnx7DcT3utG8M5I-2" value="Strategy" style="rounded=0;whiteSpace=wrap;html=1;" vertex="1" parent="1">
          <mxGeometry x="50" y="210" width="80" height="30" as="geometry" />
        </mxCell>
        <mxCell id="DTdKcRnx7DcT3utG8M5I-3" value="Mapping" style="rounded=0;whiteSpace=wrap;html=1;" vertex="1" parent="1">
          <mxGeometry x="150" y="210" width="80" height="30" as="geometry" />
        </mxCell>
        <mxCell id="DTdKcRnx7DcT3utG8M5I-4" value="Design" style="rounded=0;whiteSpace=wrap;html=1;" vertex="1" parent="1">
          <mxGeometry x="50" y="270" width="80" height="30" as="geometry" />
        </mxCell>
        <mxCell id="DTdKcRnx7DcT3utG8M5I-6" value="Patterns" style="rounded=0;whiteSpace=wrap;html=1;" vertex="1" parent="1">
          <mxGeometry x="150" y="270" width="80" height="30" as="geometry" />
        </mxCell>
        <mxCell id="DTdKcRnx7DcT3utG8M5I-12" style="edgeStyle=orthogonalEdgeStyle;rounded=0;orthogonalLoop=1;jettySize=auto;html=1;exitX=0;exitY=0.5;exitDx=0;exitDy=0;entryX=1;entryY=0.5;entryDx=0;entryDy=0;endArrow=none;endFill=0;startArrow=classic;startFill=1;" edge="1" parent="1" source="DTdKcRnx7DcT3utG8M5I-7" target="DTdKcRnx7DcT3utG8M5I-1">
          <mxGeometry relative="1" as="geometry" />
        </mxCell>
        <mxCell id="DTdKcRnx7DcT3utG8M5I-13" value="Guides" style="edgeLabel;html=1;align=center;verticalAlign=middle;resizable=0;points=[];fontStyle=1" vertex="1" connectable="0" parent="DTdKcRnx7DcT3utG8M5I-12">
          <mxGeometry x="0.1116" y="2" relative="1" as="geometry">
            <mxPoint x="2" y="-3" as="offset" />
          </mxGeometry>
        </mxCell>
        <mxCell id="DTdKcRnx7DcT3utG8M5I-7" value="Architecture Governance" style="rounded=0;whiteSpace=wrap;html=1;verticalAlign=top;" vertex="1" parent="1">
          <mxGeometry x="325" y="160" width="200" height="160" as="geometry" />
        </mxCell>
        <mxCell id="DTdKcRnx7DcT3utG8M5I-8" value="Engage" style="rounded=0;whiteSpace=wrap;html=1;" vertex="1" parent="1">
          <mxGeometry x="335" y="210" width="80" height="30" as="geometry" />
        </mxCell>
        <mxCell id="DTdKcRnx7DcT3utG8M5I-9" value="Consult" style="rounded=0;whiteSpace=wrap;html=1;" vertex="1" parent="1">
          <mxGeometry x="430" y="210" width="80" height="30" as="geometry" />
        </mxCell>
        <mxCell id="DTdKcRnx7DcT3utG8M5I-10" value="Assess" style="rounded=0;whiteSpace=wrap;html=1;" vertex="1" parent="1">
          <mxGeometry x="335" y="270" width="80" height="30" as="geometry" />
        </mxCell>
        <mxCell id="DTdKcRnx7DcT3utG8M5I-11" value="Align" style="rounded=0;whiteSpace=wrap;html=1;" vertex="1" parent="1">
          <mxGeometry x="430" y="270" width="80" height="30" as="geometry" />
        </mxCell>
        <mxCell id="DTdKcRnx7DcT3utG8M5I-14" value="Enterprise Governance" style="rounded=0;whiteSpace=wrap;html=1;verticalAlign=top;" vertex="1" parent="1">
          <mxGeometry x="610" y="160" width="200" height="160" as="geometry" />
        </mxCell>
        <mxCell id="DTdKcRnx7DcT3utG8M5I-20" value="Capacity" style="rounded=0;whiteSpace=wrap;html=1;" vertex="1" parent="1">
          <mxGeometry x="630" y="210" width="80" height="30" as="geometry" />
        </mxCell>
        <mxCell id="DTdKcRnx7DcT3utG8M5I-21" value="Budget" style="rounded=0;whiteSpace=wrap;html=1;" vertex="1" parent="1">
          <mxGeometry x="720" y="210" width="80" height="30" as="geometry" />
        </mxCell>
        <mxCell id="DTdKcRnx7DcT3utG8M5I-22" value="Design" style="rounded=0;whiteSpace=wrap;html=1;" vertex="1" parent="1">
          <mxGeometry x="630" y="260" width="80" height="30" as="geometry" />
        </mxCell>
        <mxCell id="DTdKcRnx7DcT3utG8M5I-24" style="edgeStyle=orthogonalEdgeStyle;rounded=0;orthogonalLoop=1;jettySize=auto;html=1;exitX=1;exitY=0.5;exitDx=0;exitDy=0;entryX=0;entryY=0.5;entryDx=0;entryDy=0;" edge="1" parent="1" source="DTdKcRnx7DcT3utG8M5I-7" target="DTdKcRnx7DcT3utG8M5I-22">
          <mxGeometry relative="1" as="geometry" />
        </mxCell>
        <mxCell id="DTdKcRnx7DcT3utG8M5I-25" value="&lt;b&gt;Provides&lt;/b&gt;" style="edgeLabel;html=1;align=center;verticalAlign=middle;resizable=0;points=[];" vertex="1" connectable="0" parent="DTdKcRnx7DcT3utG8M5I-24">
          <mxGeometry x="0.5306" y="-2" relative="1" as="geometry">
            <mxPoint x="-27" y="-17" as="offset" />
          </mxGeometry>
        </mxCell>
        <mxCell id="DTdKcRnx7DcT3utG8M5I-29" style="edgeStyle=orthogonalEdgeStyle;rounded=0;orthogonalLoop=1;jettySize=auto;html=1;exitX=1;exitY=0.5;exitDx=0;exitDy=0;entryX=0;entryY=0.5;entryDx=0;entryDy=0;startArrow=classic;startFill=1;" edge="1" parent="1" source="DTdKcRnx7DcT3utG8M5I-27" target="DTdKcRnx7DcT3utG8M5I-28">
          <mxGeometry relative="1" as="geometry" />
        </mxCell>
        <mxCell id="DTdKcRnx7DcT3utG8M5I-30" value="&lt;b&gt;Joint&lt;br&gt;Approval&lt;br&gt;&lt;/b&gt;" style="edgeLabel;html=1;align=center;verticalAlign=middle;resizable=0;points=[];" vertex="1" connectable="0" parent="DTdKcRnx7DcT3utG8M5I-29">
          <mxGeometry x="-0.041" y="-4" relative="1" as="geometry">
            <mxPoint y="-4" as="offset" />
          </mxGeometry>
        </mxCell>
        <mxCell id="DTdKcRnx7DcT3utG8M5I-27" value="Architecture Review Board" style="rounded=0;whiteSpace=wrap;html=1;verticalAlign=middle;" vertex="1" parent="1">
          <mxGeometry x="325" y="320" width="200" height="40" as="geometry" />
        </mxCell>
        <mxCell id="DTdKcRnx7DcT3utG8M5I-28" value="Leadership Working Group" style="rounded=0;whiteSpace=wrap;html=1;verticalAlign=middle;" vertex="1" parent="1">
          <mxGeometry x="610" y="320" width="200" height="40" as="geometry" />
        </mxCell>
        <mxCell id="DTdKcRnx7DcT3utG8M5I-31" value="Community of Excellence" style="rounded=0;whiteSpace=wrap;html=1;verticalAlign=middle;" vertex="1" parent="1">
          <mxGeometry x="40" y="320" width="200" height="40" as="geometry" />
        </mxCell>
        <mxCell id="DTdKcRnx7DcT3utG8M5I-36" style="edgeStyle=orthogonalEdgeStyle;rounded=0;orthogonalLoop=1;jettySize=auto;html=1;exitX=0.5;exitY=0;exitDx=0;exitDy=0;entryX=0.5;entryY=1;entryDx=0;entryDy=0;" edge="1" parent="1" source="DTdKcRnx7DcT3utG8M5I-32" target="DTdKcRnx7DcT3utG8M5I-31">
          <mxGeometry relative="1" as="geometry" />
        </mxCell>
        <mxCell id="DTdKcRnx7DcT3utG8M5I-37" value="&lt;b&gt;Informs&lt;/b&gt;" style="edgeLabel;html=1;align=center;verticalAlign=middle;resizable=0;points=[];" vertex="1" connectable="0" parent="DTdKcRnx7DcT3utG8M5I-36">
          <mxGeometry x="0.0282" relative="1" as="geometry">
            <mxPoint as="offset" />
          </mxGeometry>
        </mxCell>
        <mxCell id="DTdKcRnx7DcT3utG8M5I-32" value="Product Area&lt;br&gt;(an architect is embedded)" style="rounded=0;whiteSpace=wrap;html=1;verticalAlign=top;" vertex="1" parent="1">
          <mxGeometry x="40" y="430" width="200" height="140" as="geometry" />
        </mxCell>
        <mxCell id="DTdKcRnx7DcT3utG8M5I-33" value="Product Area&lt;br&gt;Strategy" style="rounded=0;whiteSpace=wrap;html=1;" vertex="1" parent="1">
          <mxGeometry x="50" y="490" width="80" height="30" as="geometry" />
        </mxCell>
        <mxCell id="DTdKcRnx7DcT3utG8M5I-34" value="Product Area&lt;br&gt;Design" style="rounded=0;whiteSpace=wrap;html=1;" vertex="1" parent="1">
          <mxGeometry x="140" y="490" width="80" height="30" as="geometry" />
        </mxCell>
        <mxCell id="DTdKcRnx7DcT3utG8M5I-35" value="Business Partner Requirements" style="rounded=0;whiteSpace=wrap;html=1;" vertex="1" parent="1">
          <mxGeometry x="80" y="532" width="100" height="30" as="geometry" />
        </mxCell>
      </root>
    </mxGraphModel>
  </diagram>
</mxfile>
